<svg width="393" height="132" viewBox="0 0 393 132" fill="none" xmlns="http://www.w3.org/2000/svg">
<mask id="mask0_640_766" style="mask-type:luminance" maskUnits="userSpaceOnUse" x="0" y="0" width="393" height="132">
<rect width="393" height="132" fill="white"/>
</mask>
<g mask="url(#mask0_640_766)">
<mask id="mask1_640_766" style="mask-type:luminance" maskUnits="userSpaceOnUse" x="-1" y="17" width="395" height="130">
<rect x="-0.0385742" y="17.4767" width="393.039" height="128.54" fill="white"/>
</mask>
<g mask="url(#mask1_640_766)">
<path fill-rule="evenodd" clip-rule="evenodd" d="M296.83 133.414C301.3 126.168 305.513 116.979 301.189 113.937C289.087 105.354 289.087 133.743 276.64 119.549C270.072 112.287 255.896 72.3425 241.029 83.8972C228.236 93.8009 253.129 114.928 243.103 123.844C234.113 132.097 228.236 105.028 220.283 106.349C210.951 107.669 210.951 128.467 200.576 125.165C188.474 121.534 206.454 95.7852 192.279 92.8137C176.375 89.1824 176.025 114.931 167.385 120.213C165.656 118.563 165.311 116.582 164.619 113.941C162.545 107.008 155.975 72.3465 143.528 78.6189C128.661 86.2109 146.295 108.654 145.257 118.566C143.873 133.421 123.475 104.702 118.98 104.371C105.768 103.511 123.339 125.82 129.766 133.422L296.83 133.414Z" fill="#90CCD6"/>
<path fill-rule="evenodd" clip-rule="evenodd" d="M19.461 23.0112C14.6039 23.0242 9.51298 23.9573 5.7108 27.0309C2.67799 29.6426 0.747077 33.2209 0.280125 37.0948C-0.0322637 39.249 -0.0822485 41.4304 0.131259 43.5955C0.281597 46.0147 0.947784 48.3791 2.08899 50.5437C4.55104 54.6736 8.63213 57.6992 13.4327 58.9537C17.8458 60.2823 22.5938 60.1905 26.9469 58.6923C30.0611 57.4989 32.7393 55.4581 34.6488 52.8234C38.45 47.4355 39.491 40.6938 37.48 34.4877C36.5414 31.4932 34.7439 28.8093 32.2906 26.7396C29.5461 24.5592 26.1502 23.2627 22.5879 23.0352C21.5479 22.9568 20.5036 22.9464 19.4621 23.0042C19.0426 23.0262 19.0426 23.6449 19.4621 23.6229C23.1193 23.3372 26.7808 24.1226 29.9585 25.8746C32.6278 27.4808 34.7373 29.8078 36.0193 32.5605C38.6182 38.2642 38.4144 44.778 35.4636 50.3235C34.0418 53.0434 31.8623 55.3367 29.1647 56.9513C25.6952 58.847 21.6731 59.6115 17.7077 59.1289C12.8033 58.738 8.22169 56.6354 4.83841 53.2229C3.16632 51.4486 1.9645 49.3172 1.33397 47.0075C0.798406 44.8365 0.570242 42.6067 0.655555 40.3777C0.567938 36.4938 1.78377 32.6849 4.12531 29.5079C6.83492 26.1449 11.0461 24.4449 15.3516 23.8802C16.7144 23.7097 18.0876 23.6261 19.4621 23.6299C19.641 23.6299 19.7861 23.4914 19.7861 23.3205C19.7861 23.1497 19.641 23.0112 19.4621 23.0112" fill="#003849"/>
<path fill-rule="evenodd" clip-rule="evenodd" d="M7.39707 26.8057C9.54878 28.0201 12.3107 28.6008 14.084 30.3599C16.2272 32.4854 13.525 34.8191 11.8022 36.1667C10.8163 36.8362 9.98066 37.6873 9.3443 38.6697C8.76516 39.7695 8.63082 41.0345 8.96682 42.2229C9.31537 43.2531 9.97132 44.1637 10.8543 44.843C11.7608 45.477 12.5381 46.2643 13.1476 47.1657C13.9298 48.6445 13.158 50.4146 12.2038 51.64C10.951 53.0995 9.40645 54.3063 7.66024 55.1902C7.51931 55.2821 7.47681 55.4624 7.5629 55.6031C7.64898 55.7438 7.83439 55.7969 7.98741 55.7248C10.6728 54.2231 13.9277 51.9484 14.1091 48.6815C14.2548 46.0604 11.5767 45.1063 10.202 43.2751C9.38366 42.1271 9.20292 40.6703 9.71762 39.3715C10.314 38.2339 11.2102 37.264 12.3181 36.5572C14.0462 35.2106 16.5586 32.996 15.1377 30.6572C14.324 29.5708 13.2056 28.7258 11.9113 28.2193C10.5292 27.5485 9.06538 27.0259 7.7284 26.271C7.57506 26.1962 7.38715 26.2485 7.30004 26.3904C7.21294 26.5323 7.25684 26.7145 7.40021 26.8057" fill="#003849"/>
<path fill-rule="evenodd" clip-rule="evenodd" d="M20.1406 23.6169C19.3479 25.9196 18.811 28.746 19.7789 31.0727C20.6995 33.2863 22.9823 33.9892 25.2776 34.1353C26.2172 34.1067 27.1557 34.2179 28.0596 34.4647C29.0337 34.8412 29.0474 35.8303 28.889 36.6954C28.587 38.3503 27.6171 39.7199 27.0414 41.2798C26.502 42.8006 26.7593 44.4762 27.7335 45.7851C29.6807 48.6615 33.3654 48.4723 36.5186 48.8147C36.9328 48.8597 36.9286 48.24 36.5186 48.1959C33.7409 47.8956 30.2763 48.1289 28.4444 45.688C27.8644 44.9583 27.4981 44.0945 27.3832 43.185C27.3549 42.3849 27.535 41.5905 27.9076 40.8733C28.6527 39.5421 29.2061 38.1209 29.5528 36.6483C29.7693 35.8475 29.5824 34.996 29.0474 34.3456C28.4626 33.8844 27.7296 33.6292 26.9712 33.6227C24.9138 33.4155 22.501 33.6127 21.0319 31.9207C19.1696 29.7722 19.9435 26.1839 20.7708 23.7851C20.9019 23.4056 20.2759 23.2435 20.1417 23.6209" fill="#003849"/>
<path fill-rule="evenodd" clip-rule="evenodd" d="M16.1214 59.0778C18.0059 57.142 18.9306 54.5276 18.6611 51.8973C18.2822 49.9602 17.6917 48.0663 16.8995 46.2466C16.2012 44.6419 15.9834 42.8836 16.2704 41.1677C16.652 39.777 18.5437 38.5005 19.9928 39.4146C21.2155 40.1865 21.4368 42.0807 21.5972 43.3392C21.8069 44.9561 21.8069 46.5881 22.004 48.207C22.0919 48.771 22.2112 49.3301 22.3616 49.882C22.5808 50.8251 22.4266 51.8252 22.6761 52.7684C22.8041 53.2369 23.1313 53.9698 23.6954 54.0889C24.1956 54.189 24.5437 53.7525 24.7671 53.3941C25.1574 52.6742 25.4989 51.9312 25.7894 51.1695C25.9357 50.8185 26.1147 50.4807 26.3242 50.1603C26.6031 49.7598 26.8265 49.7118 27.3476 49.6867C30.2009 49.5536 31.154 52.6062 32.0338 54.6496C32.19 55.013 32.8181 54.8498 32.663 54.4854C31.8954 52.7023 31.1373 50.2274 29.1282 49.3643C28.2712 48.977 27.289 48.9281 26.3945 49.2282C25.8749 49.5996 25.4921 50.1187 25.3008 50.7109C24.9862 51.3917 24.7314 52.1016 24.3854 52.7694C24.1473 53.2289 23.9208 53.7705 23.5381 53.1408C23.1664 52.1942 23.0012 51.1851 23.0526 50.1753C22.9855 49.5746 22.759 49.0029 22.6751 48.3982C22.4465 46.7402 22.4601 45.0592 22.2557 43.3993C22.0827 42.0046 21.852 40.3076 20.7877 39.2444C19.6109 38.271 17.8552 38.3004 16.7149 39.3125C15.3612 40.3998 15.3517 42.286 15.6003 43.8178C16.0372 45.7096 16.6409 47.5627 17.4049 49.3573C17.9504 50.8138 18.1593 52.3658 18.0173 53.9067C17.7552 55.6744 16.9351 57.3239 15.6663 58.6353C15.3937 58.9357 15.8499 59.3742 16.1256 59.0738" fill="#003849"/>
<path fill-rule="evenodd" clip-rule="evenodd" d="M5.81241 30.0405C6.16473 30.3779 6.48666 30.7413 6.86938 31.0507C6.93172 31.1069 7.01339 31.1393 7.09908 31.1418C7.18504 31.1407 7.26728 31.1081 7.32872 31.0507C7.45307 30.9286 7.45307 30.7342 7.32872 30.6122C6.94593 30.3058 6.62298 29.9394 6.27174 29.602C6.14489 29.4812 5.93951 29.4815 5.81305 29.6026C5.68652 29.7236 5.68671 29.9197 5.8135 30.0405" fill="#003849"/>
<path fill-rule="evenodd" clip-rule="evenodd" d="M11.4301 33.2002L10.7033 33.8941C10.6433 33.9528 10.6092 34.0313 10.6079 34.1133C10.6079 34.2842 10.753 34.4227 10.9319 34.4227C11.0175 34.4209 11.0991 34.3883 11.1606 34.3316L11.8883 33.6378C11.948 33.5789 11.9817 33.5004 11.9827 33.4185C11.9829 33.3364 11.9489 33.2575 11.8881 33.1995C11.8273 33.1414 11.7446 33.1089 11.6586 33.1091C11.5728 33.1108 11.4908 33.1433 11.429 33.2002" fill="#003849"/>
<path fill-rule="evenodd" clip-rule="evenodd" d="M4.09317 36.9229C4.2263 37.0487 4.35865 37.1755 4.4903 37.3033C4.55206 37.3605 4.63446 37.3929 4.72039 37.3937C4.7638 37.3956 4.8069 37.3866 4.84544 37.3676C4.88558 37.3549 4.92168 37.3328 4.95054 37.3033C5.01133 37.2449 5.04564 37.1659 5.04615 37.0835C5.04455 37.0013 5.01043 36.9227 4.95054 36.8637L4.55334 36.4833C4.49146 36.4264 4.40919 36.3941 4.32326 36.393C4.27991 36.391 4.23681 36.4 4.19827 36.4191C4.15819 36.4318 4.12209 36.4539 4.09317 36.4833C4.03244 36.5418 3.99814 36.6207 3.99756 36.7031C3.99923 36.7853 4.03341 36.8638 4.09317 36.9229Z" fill="#003849"/>
<path fill-rule="evenodd" clip-rule="evenodd" d="M5.9594 43.1099L5.92478 43.154L5.97508 43.0919C5.80734 43.2993 5.61245 43.4854 5.39523 43.6456L5.45712 43.6005L5.41098 43.6345C5.37418 43.6537 5.34282 43.6812 5.31971 43.7146C5.29168 43.7446 5.27184 43.7807 5.26205 43.8198C5.23978 43.9002 5.25142 43.9858 5.29456 44.058C5.33738 44.1277 5.40695 44.1787 5.48855 44.2002C5.57265 44.2235 5.66308 44.2122 5.73815 44.1692C6.03902 43.9647 6.302 43.7136 6.51615 43.4263C6.55999 43.3542 6.5717 43.2684 6.54866 43.188C6.52626 43.1096 6.4734 43.0423 6.40082 42.9998C6.3253 42.9582 6.23544 42.947 6.15128 42.9688L6.07365 42.9998C6.02571 43.0269 5.98564 43.0651 5.95729 43.1109" fill="#003849"/>
<path fill-rule="evenodd" clip-rule="evenodd" d="M6.90003 50.9652H8.884C9.0625 50.9643 9.20689 50.7404 9.20689 50.4646C9.20689 50.1889 9.0625 49.965 8.884 49.9641H6.90003C6.72153 49.965 6.57715 50.1889 6.57715 50.4646C6.57715 50.7404 6.72153 50.9643 6.90003 50.9652Z" fill="#003849"/>
<path fill-rule="evenodd" clip-rule="evenodd" d="M18.6327 43.7387C18.9238 43.4278 19.233 43.1326 19.5586 42.8546C19.6195 42.7964 19.6538 42.7176 19.654 42.6354C19.6533 42.5532 19.619 42.4746 19.5586 42.4161C19.4976 42.3581 19.4151 42.3253 19.329 42.325C19.2438 42.3297 19.1629 42.3618 19.0993 42.4161C18.7739 42.6944 18.4648 42.9895 18.1734 43.3002C18.0466 43.421 18.0464 43.6171 18.1729 43.7382C18.2994 43.8593 18.5048 43.8595 18.6317 43.7387" fill="#003849"/>
<path fill-rule="evenodd" clip-rule="evenodd" d="M18.9024 48.4573C19.3128 48.6431 19.7364 48.801 20.1701 48.9298C20.3425 48.974 20.5202 48.8776 20.5686 48.7136C20.612 48.5493 20.5121 48.3816 20.3421 48.3331C20.147 48.271 19.951 48.208 19.7581 48.1399L19.6206 48.0898L19.5357 48.0568C19.5168 48.0498 19.4487 48.0277 19.5284 48.0568C19.4265 48.0184 19.327 47.9743 19.2306 47.9246C19.076 47.8384 18.8774 47.8881 18.787 48.0357C18.6967 48.1834 18.7488 48.373 18.9034 48.4593" fill="#003849"/>
<path fill-rule="evenodd" clip-rule="evenodd" d="M20.3728 55.5456C20.2317 55.8149 20.116 56.0953 19.9749 56.3656C19.933 56.4383 19.9214 56.5234 19.9423 56.6039C19.9655 56.6814 20.019 56.7477 20.0917 56.7891C20.1679 56.8329 20.2594 56.8455 20.3455 56.8241C20.4278 56.8037 20.4981 56.7524 20.5402 56.682C20.6812 56.4116 20.797 56.1313 20.9381 55.862C20.9798 55.7892 20.9914 55.7042 20.9708 55.6237C20.9473 55.5462 20.8939 55.4801 20.8212 55.4385C20.7454 55.3969 20.6552 55.3857 20.5707 55.4075C20.4887 55.4286 20.4187 55.4797 20.376 55.5496" fill="#003849"/>
<path fill-rule="evenodd" clip-rule="evenodd" d="M26.9112 55.3485C27.2614 55.4686 27.6264 55.5468 27.9692 55.6873C28.0534 55.7108 28.1433 55.6988 28.2188 55.6541C28.2931 55.6098 28.3472 55.537 28.369 55.452C28.3908 55.3669 28.3786 55.2764 28.3352 55.2005C28.289 55.129 28.2207 55.0754 28.1412 55.0483C27.7983 54.9078 27.4334 54.8338 27.0842 54.7094C26.9115 54.662 26.7336 54.7652 26.6847 54.941C26.6419 55.1169 26.7416 55.2961 26.9112 55.3485" fill="#003849"/>
<path fill-rule="evenodd" clip-rule="evenodd" d="M34.5044 43.3632C34.0602 43.847 33.7177 44.4079 33.4956 45.0152C33.4493 45.1798 33.5502 45.3494 33.7221 45.3957C33.8944 45.4364 34.0698 45.3408 34.1205 45.1784C34.1436 45.1123 34.1688 45.0452 34.195 44.9782L34.216 44.9291C34.2495 44.851 34.1992 44.9631 34.216 44.9191L34.2611 44.824C34.324 44.6938 34.3953 44.5677 34.4708 44.4445C34.5463 44.3214 34.6239 44.2112 34.7078 44.0991L34.7718 44.016L34.7958 43.986C34.7728 44.015 34.8084 43.971 34.8126 43.967C34.8598 43.9099 34.9081 43.8538 34.9574 43.7988C35.0841 43.6779 35.0844 43.4818 34.9579 43.3607C34.8313 43.2397 34.6259 43.2394 34.4991 43.3602" fill="#003849"/>
<path fill-rule="evenodd" clip-rule="evenodd" d="M31.3418 39.4235C31.6438 39.5423 31.9528 39.6387 32.2667 39.712C32.4404 39.7639 32.6197 39.6521 32.6672 39.4624C32.7147 39.2727 32.6124 39.0768 32.4387 39.025C32.1248 38.9515 31.8158 38.8551 31.5138 38.7364C31.4296 38.7109 31.3396 38.7237 31.2643 38.7719C31.1919 38.8195 31.1387 38.8951 31.1153 38.9837C31.0926 39.0757 31.1043 39.1738 31.1478 39.2563C31.1941 39.3326 31.2623 39.3898 31.3418 39.4189" fill="#003849"/>
<path fill-rule="evenodd" clip-rule="evenodd" d="M31.817 31.0647C31.6785 31.4581 31.5768 31.8598 31.5129 32.2661C31.4897 32.3468 31.5035 32.4317 31.5515 32.5044C31.6272 32.6121 31.7733 32.6716 31.9222 32.6554C32.0711 32.6392 32.1938 32.5505 32.2335 32.4303C32.2977 32.024 32.3995 31.6224 32.5377 31.2289C32.5909 31.0643 32.4747 30.8947 32.2769 30.8485C32.0789 30.8071 31.8767 30.9024 31.8183 31.0647" fill="#003849"/>
<path fill-rule="evenodd" clip-rule="evenodd" d="M24.3224 28.76C24.705 28.994 25.1025 29.205 25.5125 29.3917C25.6672 29.478 25.8658 29.4282 25.9561 29.2806C26.0464 29.133 25.9943 28.9434 25.8397 28.8571C25.4294 28.6707 25.0319 28.4597 24.6496 28.2253C24.4947 28.1407 24.2974 28.1902 24.206 28.3365C24.1203 28.4847 24.1715 28.6711 24.3224 28.76Z" fill="#003849"/>
<path fill-rule="evenodd" clip-rule="evenodd" d="M66.5196 88.2623C64.7444 86.4119 62.2548 85.3338 59.6272 85.2778C56.97 85.2765 54.5666 86.7847 53.5139 89.1143C51.207 93.6687 52.2503 100.252 56.5433 103.431C60.616 106.45 66.5227 106.079 71.0925 104.39C73.7185 103.442 75.9361 101.682 77.3914 99.3895C78.8984 97.109 79.5423 94.4047 79.2159 91.7264C78.7482 88.9329 76.6442 86.6429 73.8042 85.8364C71.0369 85.0555 67.6793 85.7894 66.1389 88.2603C66.0635 88.4064 66.1192 88.5834 66.2665 88.6656C66.4138 88.7478 66.6027 88.7072 66.6989 88.5727C68.0317 86.4351 70.8933 85.7844 73.3051 86.349C75.7608 86.9278 77.7038 88.718 78.3971 91.0406C78.9503 93.4587 78.5784 95.9861 77.3485 98.165C76.2182 100.39 74.3546 102.198 72.0436 103.314C68.0359 105.243 62.5014 105.86 58.4119 103.84C53.8243 101.575 52.2 96.0305 53.3325 91.4491C53.991 88.7849 55.7579 86.2659 58.8051 85.9326C61.5417 85.7258 64.2233 86.7472 66.0593 88.6958C66.3414 88.9902 66.7985 88.5516 66.5186 88.2573" fill="#003849"/>
<path fill-rule="evenodd" clip-rule="evenodd" d="M66.6225 88.1151C66.807 85.2758 66.9119 80.8005 70.5379 79.9945C70.9437 79.9034 70.7728 79.3077 70.3659 79.3938C66.3928 80.2769 66.18 84.9704 65.9744 88.1111C65.9482 88.5116 66.5962 88.5116 66.6225 88.1111" fill="#003849"/>
<path fill-rule="evenodd" clip-rule="evenodd" d="M66.9904 84.0493C67.0613 83.1933 66.7714 82.3457 66.1851 81.6945C65.6918 80.9654 64.9294 80.44 64.0491 80.2228C63.6072 80.1765 63.1645 80.3032 62.8221 80.5739C62.4796 80.8447 62.2668 81.2363 62.2319 81.6595C62.24 82.611 62.8109 83.4763 63.7063 83.8941C64.6068 84.53 65.7686 84.7236 66.8415 84.4167C66.9948 84.3295 67.0466 84.1411 66.958 83.9932C66.8648 83.8492 66.6696 83.8003 66.5144 83.8821C66.3871 83.9237 66.2551 83.9506 66.1211 83.9622C65.946 83.9717 65.7703 83.9637 65.5969 83.9382C65.1721 83.8704 64.7615 83.7382 64.3805 83.5467C63.7398 83.2293 62.9701 82.6737 62.8768 81.9769C62.8541 81.6576 62.9637 81.3426 63.182 81.0998C63.2661 81.0002 63.3739 80.9212 63.4965 80.8696C63.6065 80.8245 63.7267 80.8073 63.8457 80.8195C63.8635 80.8195 63.9506 80.8285 63.9275 80.8255L64.0114 80.8415C64.093 80.8599 64.1731 80.8833 64.2516 80.9116C64.398 80.9717 64.5383 81.0444 64.6709 81.1289C64.9862 81.334 65.2687 81.5815 65.5098 81.8637C65.7873 82.1776 66.0149 82.5288 66.1851 82.906C66.2605 83.0829 66.3181 83.2663 66.3571 83.4536C66.3725 83.5281 66.3802 83.6039 66.3802 83.6799C66.3802 83.7219 66.3802 83.763 66.3802 83.804C66.3802 83.819 66.3802 83.834 66.3802 83.8501C66.3728 83.9502 66.3917 83.792 66.3802 83.8861C66.338 84.0502 66.4374 84.2172 66.6067 84.2666C66.779 84.3102 66.9562 84.214 67.0051 84.0503" fill="#003849"/>
<path fill-rule="evenodd" clip-rule="evenodd" d="M63.7643 82.051C64.5534 82.8848 65.4321 83.6371 66.3858 84.2956C66.5404 84.3819 66.739 84.3321 66.8294 84.1845C66.9197 84.0369 66.8676 83.8473 66.713 83.761C65.8064 83.1304 64.972 82.4102 64.2236 81.6124C64.0954 81.5 63.8971 81.5041 63.7739 81.6216C63.6508 81.7392 63.6466 81.9285 63.7643 82.051" fill="#003849"/>
<path fill-rule="evenodd" clip-rule="evenodd" d="M58.6679 87.8168C57.7757 88.098 57.0031 88.6477 56.4658 89.3836C55.9695 90.1372 55.662 90.99 55.5672 91.8756C55.5266 92.0395 55.6254 92.2055 55.7936 92.256C55.9664 92.3003 56.1443 92.204 56.1932 92.0398C56.2758 91.2392 56.5417 90.4657 56.9723 89.7741C57.419 89.1338 58.0771 88.6546 58.8419 88.4125C59.233 88.2813 59.0652 87.6826 58.67 87.8118" fill="#003849"/>
<path fill-rule="evenodd" clip-rule="evenodd" d="M257.737 104.365C259.945 110.592 262.176 116.811 264.431 123.022C266.501 128.729 268.582 134.436 270.731 140.115C271.451 142.017 272.165 143.919 272.95 145.794C272.98 145.885 273.05 145.959 273.142 145.994C273.235 146.03 273.339 146.025 273.426 145.98C277.132 144.393 280.998 143.135 284.818 141.828C289.687 140.162 294.563 138.51 299.379 136.708C301.99 135.73 304.584 134.705 307.139 133.604C307.265 133.533 307.326 133.39 307.288 133.254C303.867 123.177 300.417 113.121 296.311 103.275C294.989 100.106 293.625 96.9526 292.247 93.8069C292.196 93.6449 292.021 93.5498 291.849 93.5906C281.638 96.422 271.539 99.5977 261.473 102.868C260.306 103.246 259.142 103.637 257.967 103.989C257.571 104.108 257.739 104.706 258.14 104.59C260.89 103.766 263.606 102.829 266.337 101.949C271.423 100.314 276.526 98.7253 281.646 97.1849C285.095 96.1536 288.555 95.1558 292.027 94.1913L291.628 93.9751C295.865 103.649 299.779 113.407 303.23 123.364C304.39 126.712 305.536 130.066 306.668 133.424L306.817 133.074C297.682 137.043 288.099 139.951 278.715 143.304C276.827 143.978 274.947 144.668 273.11 145.454L273.587 145.639C271.879 141.56 270.394 137.39 268.868 133.249C266.553 126.979 264.27 120.699 262.019 114.408C260.798 111.011 259.585 107.612 258.378 104.21C258.245 103.835 257.618 103.996 257.749 104.374" fill="#003849"/>
<path fill-rule="evenodd" clip-rule="evenodd" d="M263.226 102.601C264.942 107.47 266.674 112.333 268.422 117.191C270.589 123.25 272.763 129.306 274.944 135.361C275.922 138.07 276.901 140.777 277.88 143.485C278.016 143.859 278.642 143.698 278.509 143.32C276.588 138.021 274.677 132.718 272.776 127.413C270.647 121.481 268.523 115.548 266.405 109.614C265.553 107.223 264.704 104.831 263.858 102.438C263.725 102.063 263.099 102.223 263.229 102.602" fill="#003849"/>
<path fill-rule="evenodd" clip-rule="evenodd" d="M280.733 109.283C277.129 110.485 276.05 110.72 273.976 112.639C272.874 113.691 272.874 115.424 274.689 115.549C276.698 115.673 279.551 114.434 281.431 113.753C283.44 113.011 285.385 112.145 287.266 111.278C288.368 110.721 289.664 110.163 289.6 108.864C289.47 106.635 285.45 107.378 280.734 109.283" fill="#003849"/>
<path fill-rule="evenodd" clip-rule="evenodd" d="M277.391 122.774C282.463 121.155 287.448 119.304 292.431 117.451C292.815 117.308 292.648 116.709 292.258 116.85C287.276 118.703 282.291 120.554 277.218 122.173C276.825 122.3 276.992 122.897 277.391 122.774Z" fill="#003849"/>
<path fill-rule="evenodd" clip-rule="evenodd" d="M276.022 120.015C281.094 118.396 286.079 116.545 291.062 114.692C291.446 114.548 291.279 113.95 290.889 114.091C285.907 115.944 280.922 117.795 275.849 119.414C275.456 119.54 275.624 120.138 276.022 120.015Z" fill="#003849"/>
<path fill-rule="evenodd" clip-rule="evenodd" d="M296.911 38.5716C294.352 41.1526 294.159 45.4167 295.731 48.5163C297.975 52.3769 302.793 54.1481 307.17 52.7213C310.98 51.2801 313.662 47.9683 314.164 44.0851C314.378 40.2034 311.975 36.6238 308.192 35.1876C306.337 34.4076 304.26 34.2509 302.3 34.743C300.074 35.4046 298.153 36.7764 296.86 38.6286C296.617 38.952 297.175 39.2624 297.42 38.941C299.604 36.0376 303.115 34.3726 306.84 35.3798C310.432 36.3065 313.078 39.2179 313.533 42.7435C313.627 46.2387 311.751 49.5138 308.619 51.3246C306.699 52.5403 304.329 52.9237 302.097 52.3799C300.051 51.9217 298.227 50.8171 296.922 49.2452C294.787 46.3508 294.749 41.6532 297.367 39.0131C297.654 38.7237 297.196 38.2852 296.908 38.5746" fill="#003849"/>
<path fill-rule="evenodd" clip-rule="evenodd" d="M299.232 40.2626C297.046 42.4121 297.355 46.8624 299.767 48.7025C301.969 50.3044 304.621 50.9412 307.181 49.5375C310.927 47.4911 312.854 42.5423 309.04 39.1843C307.686 37.8735 305.776 37.2306 303.861 37.4412C301.945 37.6518 300.238 38.6924 299.232 40.2626" fill="#5596A5"/>
<path fill-rule="evenodd" clip-rule="evenodd" d="M300.686 46.2206C300.986 45.0192 301.287 43.8151 301.588 42.6083C301.685 42.2209 301.064 42.0567 300.959 42.4441C300.658 43.6456 300.358 44.8496 300.057 46.0564C299.961 46.4439 300.581 46.6091 300.686 46.2206Z" fill="#003849"/>
<path fill-rule="evenodd" clip-rule="evenodd" d="M303.687 47.6133C304.355 44.9401 305.065 42.2749 305.732 39.6038C305.83 39.2163 305.208 39.0521 305.103 39.4396C304.435 42.1137 303.725 44.7779 303.057 47.4491C302.961 47.8365 303.582 48.0007 303.687 47.6133Z" fill="#003849"/>
<path fill-rule="evenodd" clip-rule="evenodd" d="M307.439 45.0502C307.62 44.3224 307.759 43.5845 307.984 42.8667C308.032 42.7008 307.93 42.5296 307.756 42.4842C307.582 42.4389 307.403 42.5366 307.355 42.7025C307.13 43.4203 306.991 44.1582 306.81 44.886C306.762 45.0519 306.865 45.2231 307.038 45.2685C307.212 45.3138 307.392 45.2161 307.439 45.0502Z" fill="#003849"/>
<path fill-rule="evenodd" clip-rule="evenodd" d="M311.937 48.9368C314.97 50.0451 318.042 51.0663 321.123 52.0405C322.797 52.6868 324.582 53.0264 326.387 53.0417C327.331 52.9916 329.367 52.6993 329.686 51.654C330.105 50.2784 327.711 49.3283 326.757 48.9198C324.431 47.9752 322.029 47.2124 319.573 46.6391C317.616 46.0968 315.625 45.6675 313.613 45.3536C313.205 45.2995 313.029 45.8962 313.44 45.9543C314.946 46.1872 316.437 46.4946 317.909 46.8754C320.215 47.3993 322.488 48.0423 324.72 48.8017C325.695 49.1267 326.641 49.524 327.551 49.9901C328.043 50.2514 328.809 50.6258 329.026 51.1664C329.363 51.9964 327.391 52.3058 326.816 52.3859C325.056 52.4933 323.294 52.2113 321.668 51.5619C318.459 50.5537 315.262 49.4905 312.107 48.3371C311.717 48.1949 311.548 48.7926 311.935 48.9378" fill="#003849"/>
<path fill-rule="evenodd" clip-rule="evenodd" d="M114.332 107.91C111.5 99.7138 99.6156 99.2222 92.8532 102.879C92.032 103.317 91.2646 103.842 90.5652 104.443C90.2136 104.747 89.8855 105.075 89.5837 105.424C89.3404 105.694 89.2207 106.046 89.2513 106.401C89.1779 108.156 89.1192 109.911 89.0636 111.666C88.914 116.402 88.7892 121.137 88.6893 125.874C88.6032 129.905 88.4607 133.948 88.554 137.98C88.5564 138.09 88.6189 138.191 88.7187 138.245C88.8185 138.3 88.941 138.301 89.0416 138.247C94.9588 135.537 102.235 133.172 108.755 135.244C110.666 135.861 112.413 136.871 113.87 138.203C113.975 138.301 114.136 138.321 114.263 138.251C117.287 135.988 120.989 134.706 124.83 134.592C128.119 134.666 131.353 135.417 134.309 136.795C135.969 137.511 137.575 138.335 139.164 139.183C139.265 139.237 139.388 139.237 139.488 139.182C139.588 139.127 139.65 139.026 139.652 138.916V105.102C139.652 104.734 139.757 104.272 139.491 103.988C139.004 103.566 138.457 103.211 137.866 102.935C133.65 100.625 128.702 99.846 123.932 100.741C119.759 101.49 114.968 103.703 113.702 107.911C113.655 108.076 113.757 108.248 113.931 108.293C114.105 108.338 114.284 108.241 114.332 108.075C115.244 105.042 118.255 103.1 121.219 102.083C124.94 100.834 128.965 100.665 132.787 101.598C135.098 102.155 137.269 103.15 139.17 104.524L139.009 104.256V138.922L139.497 138.655C133.589 135.5 126.95 132.672 120.098 134.665C117.879 135.342 115.797 136.375 113.943 137.721L114.336 137.769C111.772 135.481 108.453 134.118 104.95 133.916C101.336 133.765 97.7266 134.303 94.3328 135.498C92.416 136.128 90.5406 136.868 88.7166 137.713L89.2052 137.98C89.1286 134.719 89.2303 131.45 89.2932 128.19C89.382 123.59 89.4946 118.991 89.6309 114.391C89.6883 112.438 89.7512 110.486 89.8197 108.534C89.8462 107.795 89.8749 107.054 89.9057 106.314C89.9361 105.613 90.9333 104.932 91.4859 104.503C94.8075 102.154 98.9102 101.038 103.03 101.362C107.584 101.619 112.196 103.692 113.709 108.07C113.839 108.446 114.465 108.285 114.338 107.905" fill="#003849"/>
<path fill-rule="evenodd" clip-rule="evenodd" d="M113.693 107.992C113.693 116.194 113.766 124.398 113.801 132.601C113.807 134.223 113.812 135.846 113.816 137.468C113.817 137.639 114.024 137.777 114.279 137.777C114.534 137.777 114.741 137.639 114.741 137.468C114.741 129.266 114.668 121.063 114.634 112.859C114.627 111.237 114.622 109.615 114.619 107.993C114.618 107.822 114.411 107.684 114.156 107.684C113.901 107.684 113.694 107.822 113.693 107.993" fill="#003849"/>
<path fill-rule="evenodd" clip-rule="evenodd" d="M92.1683 109.559C92.6618 108.914 93.4838 108.577 94.3137 108.678C94.9785 108.84 95.5888 109.185 96.2431 109.379C97.816 109.85 98.9212 109.297 100.26 108.559C100.98 108.106 101.825 107.866 102.688 107.871C103.69 108.038 104.653 108.375 105.529 108.868C106.268 109.287 107.125 109.478 107.982 109.414C108.862 109.256 109.534 108.607 110.394 108.391C110.568 108.346 110.67 108.175 110.622 108.009C110.575 107.843 110.396 107.745 110.222 107.79C109.317 108.017 108.534 108.807 107.586 108.831C106.521 108.687 105.501 108.325 104.597 107.769C103.105 107.056 101.329 107.152 99.9311 108.022C99.3195 108.435 98.6371 108.744 97.9146 108.935C97.0301 108.992 96.147 108.805 95.3707 108.396C94.8513 108.131 94.2695 107.996 93.6804 108.006C92.912 108.155 92.218 108.545 91.709 109.115C91.4101 109.393 91.8684 109.831 92.1683 109.553" fill="#003849"/>
<path fill-rule="evenodd" clip-rule="evenodd" d="M92.1682 113.71C92.662 113.066 93.4839 112.729 94.3136 112.83C94.9784 112.992 95.5887 113.337 96.243 113.531C97.8159 114.002 98.9211 113.449 100.26 112.71C100.98 112.257 101.825 112.018 102.688 112.023C103.69 112.189 104.652 112.527 105.529 113.019C106.269 113.437 107.125 113.628 107.982 113.565C108.862 113.409 109.534 112.758 110.394 112.542C110.568 112.497 110.67 112.325 110.622 112.16C110.575 111.994 110.396 111.896 110.222 111.941C109.317 112.169 108.533 112.957 107.586 112.982C106.521 112.838 105.501 112.476 104.597 111.92C103.105 111.207 101.329 111.303 99.9309 112.173C99.3196 112.587 98.6372 112.896 97.9145 113.086C97.03 113.143 96.147 112.957 95.3706 112.548C94.8512 112.283 94.2694 112.148 93.6803 112.158C92.912 112.306 92.2179 112.697 91.7089 113.266C91.409 113.544 91.8683 113.982 92.1682 113.704" fill="#003849"/>
<path fill-rule="evenodd" clip-rule="evenodd" d="M92.1682 117.861C92.6618 117.216 93.4839 116.879 94.3136 116.981C94.9784 117.142 95.5887 117.488 96.243 117.682C97.8159 118.153 98.9211 117.6 100.26 116.862C100.98 116.408 101.825 116.169 102.688 116.174C103.69 116.341 104.652 116.678 105.529 117.17C106.268 117.589 107.125 117.78 107.982 117.717C108.862 117.558 109.534 116.91 110.394 116.694C110.568 116.649 110.67 116.477 110.622 116.311C110.575 116.146 110.396 116.048 110.222 116.093C109.317 116.32 108.534 117.109 107.586 117.133C106.521 116.99 105.501 116.628 104.597 116.072C103.105 115.359 101.329 115.455 99.9309 116.324C99.3194 116.738 98.637 117.047 97.9145 117.238C97.03 117.295 96.147 117.108 95.3706 116.699C94.8512 116.434 94.2694 116.299 93.6803 116.308C92.912 116.457 92.2179 116.847 91.7089 117.417C91.409 117.695 91.8683 118.133 92.1682 117.855" fill="#003849"/>
<path fill-rule="evenodd" clip-rule="evenodd" d="M92.1683 122.014C92.6618 121.369 93.4838 121.032 94.3137 121.133C94.9785 121.295 95.5888 121.64 96.2431 121.834C97.816 122.305 98.9212 121.752 100.26 121.013C100.98 120.559 101.825 120.32 102.688 120.325C103.69 120.492 104.653 120.829 105.529 121.321C106.269 121.74 107.125 121.931 107.982 121.868C108.862 121.712 109.535 121.061 110.394 120.845C110.568 120.799 110.67 120.628 110.622 120.462C110.575 120.296 110.396 120.199 110.222 120.244C109.318 120.471 108.533 121.261 107.586 121.284C106.521 121.141 105.501 120.779 104.597 120.223C103.105 119.51 101.329 119.606 99.9311 120.475C99.3195 120.889 98.6371 121.198 97.9146 121.388C97.03 121.446 96.1469 121.259 95.3707 120.85C94.8513 120.584 94.2695 120.45 93.6804 120.459C92.912 120.609 92.218 120.999 91.709 121.569C91.4101 121.847 91.8684 122.285 92.1683 122.007" fill="#003849"/>
<path fill-rule="evenodd" clip-rule="evenodd" d="M92.1682 126.165C92.6618 125.52 93.4839 125.183 94.3136 125.285C94.9784 125.446 95.5887 125.792 96.243 125.986C97.8159 126.456 98.9211 125.904 100.26 125.165C100.98 124.712 101.825 124.473 102.688 124.478C103.69 124.644 104.653 124.982 105.529 125.474C106.269 125.893 107.125 126.083 107.982 126.021C108.862 125.865 109.534 125.214 110.394 124.998C110.568 124.952 110.67 124.781 110.622 124.615C110.575 124.449 110.396 124.352 110.222 124.397C109.317 124.624 108.534 125.413 107.586 125.437C106.521 125.294 105.501 124.932 104.597 124.376C103.105 123.662 101.329 123.758 99.9309 124.628C99.3196 125.042 98.6372 125.351 97.9145 125.541C97.03 125.599 96.147 125.412 95.3706 125.004C94.8512 124.738 94.2694 124.604 93.6803 124.613C92.912 124.762 92.2179 125.152 91.7089 125.722C91.409 126 91.8683 126.437 92.1682 126.16" fill="#003849"/>
<path fill-rule="evenodd" clip-rule="evenodd" d="M92.1683 130.317C92.6618 129.672 93.4838 129.334 94.3137 129.436C94.9785 129.597 95.5888 129.943 96.2431 130.137C97.816 130.607 98.9212 130.055 100.26 129.317C100.98 128.863 101.825 128.624 102.688 128.629C103.69 128.796 104.653 129.133 105.529 129.625C106.268 130.045 107.125 130.236 107.982 130.172C108.862 130.014 109.534 129.365 110.394 129.149C110.568 129.103 110.67 128.932 110.622 128.766C110.575 128.6 110.396 128.503 110.222 128.548C109.317 128.775 108.534 129.564 107.586 129.588C106.521 129.445 105.501 129.083 104.597 128.527C103.105 127.813 101.329 127.909 99.9311 128.779C99.3195 129.193 98.6371 129.502 97.9146 129.692C97.0301 129.749 96.147 129.563 95.3707 129.154C94.8513 128.888 94.2695 128.754 93.6804 128.763C92.912 128.912 92.218 129.303 91.709 129.872C91.4101 130.151 91.8684 130.588 92.1683 130.311" fill="#003849"/>
<path fill-rule="evenodd" clip-rule="evenodd" d="M117.039 109.559C117.532 108.914 118.355 108.577 119.184 108.678C119.849 108.84 120.459 109.185 121.115 109.379C122.688 109.85 123.793 109.297 125.131 108.559C125.851 108.106 126.696 107.867 127.558 107.871C128.561 108.038 129.523 108.375 130.4 108.868C131.139 109.286 131.995 109.477 132.852 109.414C133.732 109.258 134.405 108.607 135.264 108.391C135.437 108.346 135.54 108.175 135.492 108.009C135.445 107.843 135.265 107.745 135.092 107.79C134.187 108.017 133.403 108.807 132.455 108.831C131.391 108.687 130.371 108.325 129.467 107.769C127.975 107.056 126.199 107.152 124.801 108.022C124.189 108.435 123.507 108.744 122.784 108.935C121.9 108.992 121.017 108.805 120.24 108.396C119.721 108.131 119.139 107.996 118.55 108.006C117.781 108.155 117.087 108.545 116.578 109.115C116.278 109.393 116.737 109.831 117.037 109.553" fill="#003849"/>
<path fill-rule="evenodd" clip-rule="evenodd" d="M117.039 113.71C117.533 113.066 118.355 112.729 119.184 112.83C119.849 112.992 120.459 113.337 121.115 113.531C122.688 114.002 123.793 113.449 125.131 112.71C125.851 112.257 126.696 112.018 127.558 112.023C128.561 112.189 129.523 112.527 130.4 113.019C131.139 113.437 131.995 113.628 132.852 113.565C133.732 113.409 134.405 112.758 135.264 112.542C135.437 112.497 135.54 112.325 135.492 112.16C135.445 111.994 135.265 111.896 135.092 111.941C134.187 112.169 133.402 112.957 132.455 112.982C131.391 112.838 130.371 112.476 129.467 111.92C127.975 111.207 126.199 111.303 124.801 112.173C124.189 112.586 123.507 112.895 122.784 113.086C121.9 113.143 121.017 112.956 120.24 112.548C119.721 112.283 119.139 112.148 118.55 112.158C117.781 112.306 117.087 112.696 116.578 113.266C116.278 113.544 116.737 113.982 117.037 113.704" fill="#003849"/>
<path fill-rule="evenodd" clip-rule="evenodd" d="M117.039 117.861C117.533 117.217 118.355 116.879 119.184 116.981C119.849 117.142 120.459 117.488 121.115 117.682C122.688 118.153 123.793 117.6 125.131 116.862C125.851 116.409 126.696 116.169 127.558 116.174C128.561 116.341 129.523 116.678 130.4 117.17C131.139 117.589 131.995 117.78 132.852 117.717C133.732 117.56 134.405 116.91 135.264 116.694C135.437 116.649 135.54 116.477 135.492 116.311C135.445 116.146 135.265 116.048 135.092 116.093C134.187 116.32 133.403 117.109 132.455 117.133C131.391 116.99 130.371 116.628 129.467 116.072C127.975 115.359 126.199 115.455 124.801 116.324C124.189 116.738 123.507 117.047 122.784 117.238C121.9 117.294 121.017 117.108 120.24 116.699C119.721 116.433 119.139 116.299 118.55 116.308C117.781 116.457 117.087 116.847 116.578 117.417C116.278 117.695 116.737 118.133 117.037 117.855" fill="#003849"/>
<path fill-rule="evenodd" clip-rule="evenodd" d="M117.039 122.014C117.532 121.369 118.355 121.032 119.184 121.133C119.849 121.295 120.459 121.64 121.115 121.834C122.688 122.305 123.793 121.752 125.131 121.013C125.851 120.56 126.696 120.32 127.558 120.325C128.561 120.492 129.523 120.829 130.4 121.321C131.139 121.74 131.995 121.931 132.852 121.868C133.732 121.712 134.405 121.061 135.264 120.845C135.437 120.799 135.54 120.628 135.492 120.462C135.445 120.296 135.265 120.199 135.092 120.244C134.188 120.471 133.402 121.261 132.455 121.284C131.391 121.141 130.371 120.779 129.467 120.223C127.975 119.51 126.199 119.606 124.801 120.475C124.189 120.889 123.507 121.198 122.784 121.388C121.9 121.446 121.016 121.259 120.24 120.85C119.721 120.584 119.139 120.45 118.55 120.459C117.781 120.608 117.087 120.999 116.578 121.569C116.278 121.847 116.737 122.285 117.037 122.007" fill="#003849"/>
<path fill-rule="evenodd" clip-rule="evenodd" d="M117.039 126.165C117.533 125.52 118.355 125.183 119.184 125.285C119.849 125.446 120.459 125.792 121.115 125.986C122.688 126.456 123.793 125.904 125.131 125.165C125.851 124.712 126.696 124.473 127.558 124.478C128.561 124.644 129.523 124.982 130.4 125.474C131.139 125.892 131.995 126.083 132.852 126.021C133.732 125.865 134.405 125.214 135.264 124.998C135.437 124.952 135.54 124.781 135.492 124.615C135.445 124.449 135.265 124.352 135.092 124.397C134.187 124.624 133.402 125.413 132.455 125.437C131.39 125.294 130.371 124.932 129.467 124.376C127.975 123.662 126.199 123.758 124.801 124.628C124.189 125.042 123.507 125.351 122.784 125.541C121.9 125.599 121.017 125.412 120.24 125.004C119.721 124.738 119.139 124.604 118.55 124.613C117.781 124.762 117.087 125.152 116.578 125.722C116.278 126 116.737 126.437 117.037 126.16" fill="#003849"/>
<path fill-rule="evenodd" clip-rule="evenodd" d="M117.039 130.317C117.532 129.672 118.355 129.334 119.184 129.436C119.849 129.597 120.459 129.943 121.115 130.137C122.688 130.607 123.793 130.055 125.131 129.317C125.851 128.863 126.696 128.624 127.558 128.629C128.561 128.796 129.523 129.133 130.4 129.625C131.139 130.044 131.995 130.235 132.852 130.172C133.732 130.016 134.405 129.365 135.264 129.149C135.437 129.103 135.54 128.932 135.492 128.766C135.445 128.6 135.265 128.503 135.092 128.548C134.187 128.775 133.403 129.564 132.455 129.588C131.391 129.445 130.371 129.083 129.467 128.527C127.975 127.813 126.199 127.909 124.801 128.779C124.189 129.193 123.507 129.502 122.784 129.692C121.9 129.749 121.017 129.562 120.24 129.154C119.721 128.888 119.139 128.754 118.55 128.763C117.781 128.912 117.087 129.303 116.578 129.872C116.278 130.151 116.737 130.588 117.037 130.311" fill="#003849"/>
<path fill-rule="evenodd" clip-rule="evenodd" d="M309.037 94.8491C304.989 88.3033 304.443 79.4699 308.348 72.7409C310.167 69.5047 313.162 67.0148 316.77 65.7397C321.293 64.2333 326.26 64.517 330.563 66.5276C332.862 67.6706 334.914 69.2194 336.609 71.092C337.532 72.0929 338.378 73.1555 339.141 74.2717C340.145 75.6632 341.036 77.1259 341.806 78.6469L341.921 78.2234C337.937 80.393 333.839 82.3743 329.768 84.3867C324.676 86.903 319.573 89.401 314.459 91.8806C312.501 92.833 310.544 93.7855 308.587 94.738C308.215 94.9202 308.543 95.4538 308.914 95.2726C312.996 93.2782 317.081 91.2879 321.168 89.3015C326.272 86.8076 331.374 84.3086 336.444 81.7536C338.388 80.7744 340.333 79.7973 342.241 78.7581C342.392 78.6688 342.443 78.4828 342.358 78.3346C341.642 76.9241 340.821 75.5643 339.902 74.2657C339.214 73.2397 338.463 72.2541 337.652 71.3143C336.117 69.5067 334.284 67.951 332.223 66.7088C328.009 64.2901 322.963 63.5637 318.19 64.6884C314.301 65.607 310.91 67.8725 308.673 71.045C306.439 74.3037 305.196 78.0907 305.084 81.9839C304.864 86.5955 306.039 91.1702 308.47 95.1605C308.561 95.308 308.759 95.3577 308.914 95.2715C309.068 95.1852 309.121 94.9957 309.03 94.8481" fill="#003849"/>
<path fill-rule="evenodd" clip-rule="evenodd" d="M313.949 87.3532C311.514 83.4183 311.358 78.5671 313.536 74.497C314.6 72.5932 316.366 71.1338 318.493 70.4012C321.128 69.5442 324.013 69.7306 326.503 70.9188C329.401 72.5363 331.673 75.0048 332.982 77.9561C333.021 77.815 333.06 77.6738 333.099 77.5326C327.843 80.393 322.373 82.925 316.985 85.5471C315.824 86.1118 314.665 86.6764 313.506 87.2411C313.134 87.4233 313.462 87.9569 313.833 87.7757C319.225 85.1426 324.633 82.5395 329.99 79.8423C331.144 79.2617 332.297 78.682 333.427 78.0662C333.578 77.9773 333.629 77.791 333.543 77.6427C332.281 74.8889 330.237 72.5274 327.642 70.8257C325.14 69.3535 322.129 68.892 319.271 69.5432C314.336 70.6375 311.626 75.1758 311.386 79.7552C311.237 82.5214 311.933 85.2693 313.39 87.6646C313.481 87.8122 313.679 87.8619 313.834 87.7757C313.988 87.6894 314.04 87.4999 313.95 87.3523" fill="#003849"/>
<path fill-rule="evenodd" clip-rule="evenodd" d="M311.277 90.2937C311.749 91.1027 311.994 92.0137 312.49 92.8107C312.581 92.9583 312.779 93.0081 312.934 92.9218C313.089 92.8356 313.141 92.6459 313.05 92.4983C312.554 91.6974 312.309 90.7903 311.837 89.9814C311.634 89.6329 311.074 89.9453 311.277 90.2937" fill="#003849"/>
<path fill-rule="evenodd" clip-rule="evenodd" d="M318.607 87.8768C318.88 88.4686 319.197 89.0407 319.556 89.5889C319.614 89.6844 319.722 89.7429 319.838 89.7424C319.953 89.7418 320.06 89.6822 320.118 89.5861C320.175 89.49 320.174 89.372 320.116 89.2765C319.757 88.7283 319.44 88.1561 319.167 87.5645C319.076 87.4177 318.878 87.3681 318.723 87.4533C318.572 87.5423 318.521 87.7286 318.607 87.8769" fill="#003849"/>
<path fill-rule="evenodd" clip-rule="evenodd" d="M325.989 84.2015C326.145 84.5019 326.324 84.7822 326.489 85.0745C326.653 85.3448 326.776 85.6361 326.853 85.9396C326.9 86.1055 327.08 86.2032 327.253 86.1578C327.427 86.1125 327.529 85.9412 327.482 85.7754C327.251 85.1141 326.939 84.4811 326.553 83.8892C326.462 83.7424 326.264 83.6928 326.109 83.778C325.958 83.8666 325.907 84.0534 325.993 84.2015" fill="#003849"/>
<path fill-rule="evenodd" clip-rule="evenodd" d="M332.579 80.9927C332.586 81.0007 332.658 81.0928 332.626 81.0498L332.703 81.1499C332.754 81.2166 332.804 81.2834 332.853 81.3501C332.949 81.4836 333.042 81.6208 333.13 81.7616C333.312 82.048 333.478 82.3423 333.635 82.6417C333.727 82.788 333.924 82.8374 334.079 82.7528C334.23 82.6639 334.281 82.4775 334.195 82.3293C333.876 81.701 333.489 81.1061 333.042 80.5542C332.915 80.4339 332.71 80.4339 332.583 80.5542C332.462 80.6773 332.462 80.8696 332.583 80.9927" fill="#003849"/>
<path fill-rule="evenodd" clip-rule="evenodd" d="M340.132 75.4201C339.539 75.7295 338.944 76.0368 338.339 76.3262C338.186 76.4134 338.134 76.6018 338.223 76.7497C338.316 76.8933 338.511 76.9421 338.667 76.8608C339.271 76.5715 339.865 76.2601 340.459 75.9548C340.612 75.8679 340.664 75.679 340.575 75.5312C340.482 75.3868 340.287 75.3378 340.131 75.4201" fill="#003849"/>
<path fill-rule="evenodd" clip-rule="evenodd" d="M335.268 69.7795C334.675 70.2921 334.036 70.7516 333.422 71.2392C333.296 71.3606 333.296 71.5563 333.422 71.6777C333.551 71.7938 333.752 71.7938 333.881 71.6777C334.495 71.1901 335.139 70.7306 335.726 70.217C335.851 70.0957 335.851 69.9007 335.726 69.7795C335.598 69.6629 335.396 69.6629 335.268 69.7795" fill="#003849"/>
<path fill-rule="evenodd" clip-rule="evenodd" d="M328.574 65.4624C328.196 65.978 327.839 66.5086 327.466 67.0232C327.378 67.1711 327.429 67.3595 327.583 67.4467C327.738 67.5285 327.933 67.4796 328.026 67.3356C328.404 66.821 328.76 66.2903 329.133 65.7747C329.223 65.627 329.171 65.4381 329.017 65.3512C328.862 65.2694 328.667 65.3183 328.574 65.4624Z" fill="#003849"/>
<path fill-rule="evenodd" clip-rule="evenodd" d="M320.789 64.7305C320.633 65.3733 320.418 66.001 320.265 66.6438C320.217 66.8096 320.319 66.9809 320.493 67.0262C320.667 67.0715 320.846 66.9738 320.894 66.808C321.05 66.1652 321.265 65.5375 321.418 64.8947C321.465 64.7288 321.363 64.5576 321.189 64.5123C321.016 64.4669 320.836 64.5646 320.789 64.7305Z" fill="#003849"/>
<path fill-rule="evenodd" clip-rule="evenodd" d="M312.488 67.9003C312.902 68.3438 313.391 68.7152 313.806 69.1587C313.933 69.2785 314.137 69.2785 314.264 69.1587C314.387 69.0361 314.387 68.8429 314.264 68.7202C313.845 68.2777 313.361 67.9052 312.946 67.4617C312.819 67.342 312.615 67.342 312.488 67.4617C312.365 67.5842 312.365 67.7778 312.488 67.9002" fill="#003849"/>
<path fill-rule="evenodd" clip-rule="evenodd" d="M307.516 74.5761C308.052 74.756 308.597 74.9074 309.151 75.0297C309.263 75.0592 309.383 75.0293 309.466 74.9511C309.549 74.8729 309.582 74.7584 309.553 74.6507C309.523 74.543 309.436 74.4584 309.324 74.429C308.77 74.3066 308.225 74.1552 307.689 73.9754C307.516 73.9317 307.339 74.0278 307.289 74.1917C307.246 74.3559 307.346 74.5236 307.516 74.5721" fill="#003849"/>
<path fill-rule="evenodd" clip-rule="evenodd" d="M305.598 82.6753C306.35 82.6128 307.1 82.5393 307.846 82.4156C308.018 82.3596 308.12 82.1517 308.073 81.9502C308.021 81.7521 307.846 81.6357 307.674 81.6856C306.993 81.7983 306.291 81.8595 305.599 81.9183C305.483 81.9178 305.376 81.9899 305.318 82.1072C305.259 82.2244 305.259 82.3691 305.318 82.4864C305.376 82.6037 305.483 82.6757 305.599 82.6752" fill="#003849"/>
<path fill-rule="evenodd" clip-rule="evenodd" d="M306.896 89.9823C307.48 89.7848 308.052 89.5562 308.609 89.2975C308.762 89.2103 308.813 89.0215 308.724 88.874C308.631 88.73 308.436 88.6811 308.28 88.7629C308.147 88.826 308.013 88.888 307.878 88.9461L307.687 89.0262L307.605 89.0602L307.545 89.0843C307.273 89.1904 306.998 89.2905 306.722 89.3846C306.548 89.4302 306.446 89.6017 306.494 89.7675C306.542 89.9334 306.721 90.031 306.895 89.9854" fill="#003849"/>
<path fill-rule="evenodd" clip-rule="evenodd" d="M95.9358 79.7943C96.9844 75.298 92.2543 70.8888 92.4461 66.1141C92.6768 61.6088 96.5839 59.4813 100.966 60.2472C106.085 61.2484 110.123 64.9137 109.564 70.3522C109.174 74.1476 105.841 76.2051 103.326 78.662C102.462 79.4913 101.75 80.4535 101.22 81.5083" fill="#FFD066"/>
<path fill-rule="evenodd" clip-rule="evenodd" d="M100.85 81.3221C99.4866 80.8836 98.073 80.5402 96.7371 80.0146C95.7479 79.5644 94.6482 79.3819 93.5578 79.4869C92.9444 79.572 92.1234 79.8343 92.0196 80.5151C91.8822 81.4072 93.0429 82.044 93.7088 82.4004L93.7864 81.8347C92.871 82.0349 91.4428 82.3753 91.015 83.2914C90.4907 84.4148 92.1852 85.1196 92.9905 85.441V84.8403C92.1265 85.1466 90.1593 85.8364 90.7287 87.0689C91.0082 87.5368 91.4308 87.9119 91.9398 88.1442C92.6507 88.5222 93.3928 88.844 94.1587 89.1063C95.6967 89.6984 97.3001 90.1222 98.9381 90.3698C99.8032 90.4809 101.191 90.4699 101.443 89.4407C101.696 88.4115 100.618 87.4383 99.8022 86.9548L99.6386 87.5314C100.68 87.5094 102.284 87.2431 102.252 85.9486C102.058 84.8931 101.303 84.0098 100.259 83.6168L100.01 84.1825C100.874 84.3827 103.184 84.8423 103.405 83.5027C103.602 82.3013 101.762 81.5844 100.852 81.3181C100.452 81.201 100.28 81.7987 100.679 81.9188C101.236 82.0629 101.761 82.3042 102.227 82.6307C102.436 82.7878 102.806 83.0962 102.769 83.3906C102.664 84.1785 100.574 83.6799 100.183 83.5908C99.84 83.5117 99.5904 83.9913 99.9333 84.1565C100.722 84.4497 101.33 85.0653 101.592 85.8334C101.763 86.8026 100.319 86.9037 99.6407 86.9177C99.4969 86.9221 99.373 87.0157 99.3354 87.1483C99.2978 87.2808 99.3554 87.4213 99.4771 87.4944C100.042 87.8308 100.805 88.4325 100.828 89.1354C100.855 89.9583 99.5054 89.8362 98.9706 89.7601C97.7121 89.5474 96.4741 89.2359 95.2691 88.829C94.0491 88.5128 92.8898 88.0126 91.835 87.3472C91.5644 87.156 91.1534 86.8467 91.3358 86.4842C91.6221 85.9236 92.6193 85.6352 93.1646 85.442C93.3051 85.4037 93.4019 85.2811 93.4019 85.1416C93.4019 85.0022 93.3051 84.8796 93.1646 84.8413C92.7053 84.6581 91.1083 84.0614 91.7259 83.3715C92.3567 82.8529 93.1343 82.5244 93.9604 82.4274C94.0842 82.3923 94.1747 82.2909 94.1915 82.1686C94.2083 82.0464 94.1482 81.9262 94.0381 81.8618C93.7025 81.6815 92.3215 81.0017 92.7336 80.4601C93.0912 79.9855 94.1261 80.0356 94.6452 80.0807C95.5893 80.2443 96.5082 80.5208 97.38 80.9036C98.4705 81.2701 99.582 81.5674 100.68 81.9178C101.076 82.045 101.247 81.4473 100.853 81.3171" fill="#003849"/>
<path fill-rule="evenodd" clip-rule="evenodd" d="M93.1846 82.3243L98.3415 83.9933C98.7379 84.1214 98.9078 83.5237 98.5135 83.3925L93.3576 81.7216C92.9612 81.5934 92.7914 82.1901 93.1846 82.3223" fill="#003849"/>
<path fill-rule="evenodd" clip-rule="evenodd" d="M95.2952 86.1458L99.5514 87.5244C99.9478 87.6526 100.118 87.0559 99.7244 86.9237L95.4682 85.5451C95.0718 85.4169 94.902 86.0146 95.2962 86.1458" fill="#003849"/>
<path fill-rule="evenodd" clip-rule="evenodd" d="M97.2291 80.2268C98.1064 79.2297 98.696 78.0311 98.9393 76.7497C99.0753 75.62 99.1271 74.4824 99.0945 73.3457C99.2944 72.0364 99.245 70.7035 98.9488 69.411C98.8073 68.839 98.3892 68.3654 97.8226 68.1355C97.1376 67.9443 96.3978 68.1083 95.8711 68.568C94.6883 69.7254 95.8711 71.7998 97.0414 72.4937C99.4133 73.8953 101.131 71.3443 102.041 69.5962L101.437 69.4401C101.374 70.7816 101.383 73.0073 102.858 73.7181C104.19 74.3589 105.618 73.3417 106.084 72.1703C106.389 71.4074 106.399 69.7514 105.073 70.0988C104.344 70.3957 103.726 70.8966 103.301 71.5355C102.655 72.358 102.113 73.2501 101.686 74.1937C100.682 76.3782 99.9459 78.666 99.492 81.0117C99.4133 81.4012 100.038 81.5674 100.121 81.1759C100.434 79.6279 100.858 78.1022 101.39 76.6096C101.917 74.9633 102.711 73.406 103.742 71.9941C104.067 71.5816 105.734 69.8015 105.629 71.3143C105.603 72.3736 104.718 73.2302 103.609 73.2686C101.961 73.1685 102.03 70.5464 102.081 69.4381C102.078 69.3 101.98 69.1803 101.84 69.1442C101.701 69.1081 101.553 69.1641 101.477 69.2819C100.802 70.5834 99.6293 72.8371 97.7366 72.1363C97.04 71.8486 96.4984 71.2996 96.2392 70.6185C96.0295 70.1179 95.8963 69.337 96.3944 68.9385C96.8339 68.5996 97.4562 68.582 97.9159 68.8954C98.2548 69.2763 98.453 69.753 98.48 70.252C98.576 71.2715 98.5641 72.2975 98.4444 73.3146C98.3867 74.2948 98.5168 75.258 98.3678 76.2411C98.1937 77.5436 97.6388 78.773 96.7667 79.7883C96.5004 80.0887 96.9564 80.5312 97.2249 80.2268" fill="#003849"/>
<path fill-rule="evenodd" clip-rule="evenodd" d="M342.064 20.7405C337.336 20.349 332.869 22.8693 330.949 27.0129C329.105 30.948 329.736 35.5386 332.581 38.886C336.257 42.7016 341.83 44.2825 347.091 43.0018C349.596 42.3451 351.726 40.7657 353.012 38.6106C354.271 36.3443 354.805 33.7745 354.546 31.2209C354.377 28.9497 353.467 26.7862 351.944 25.0346C350.016 23.021 347.459 21.6543 344.654 21.137C343.8 20.9567 342.937 20.823 342.067 20.7365C341.653 20.6935 341.656 21.3132 342.067 21.3552C345.076 21.5451 347.956 22.5944 350.333 24.3668C352.065 25.8002 353.248 27.7426 353.697 29.8883C354.684 34.4387 352.998 39.8831 348.325 41.9165C343.838 43.8698 337.714 42.5943 334.11 39.5017C330.968 36.7232 329.772 32.4717 331.031 28.5638C332.358 23.9004 337.034 20.8461 342.067 21.3552C342.486 21.3823 342.486 20.7635 342.067 20.7365" fill="#003849"/>
<path fill-rule="evenodd" clip-rule="evenodd" d="M342.142 23.8552C338.706 23.5728 335.463 25.41 334.076 28.4246C332.748 31.2794 333.216 34.6049 335.286 37.0237C337.955 39.7851 341.999 40.9195 345.808 39.9752C349.698 38.903 351.499 35.1335 351.181 31.4752C351.053 29.6004 350.221 27.8326 348.839 26.4953C346.98 24.9234 344.623 23.9923 342.145 23.8512C341.73 23.8071 341.734 24.4269 342.145 24.4699C345.943 24.8704 349.567 26.7026 350.393 30.5241C351.091 33.7529 349.892 37.6175 346.569 39.0511C343.11 40.3048 339.208 39.6192 336.442 37.272C334.249 35.2891 333.431 32.2859 334.335 29.5339C335.344 26.286 338.611 24.1676 342.145 24.4699C342.564 24.4959 342.564 23.8772 342.145 23.8512" fill="#003849"/>
<path fill-rule="evenodd" clip-rule="evenodd" d="M370.797 30.8104C366.067 30.4148 361.596 32.9354 359.674 37.0818C357.83 41.0169 358.461 45.6076 361.307 48.9548C364.983 52.7732 370.558 54.3554 375.821 53.0737C378.326 52.4167 380.456 50.8374 381.743 48.6825C383.001 46.416 383.534 43.8463 383.276 41.2928C383.107 39.0215 382.197 36.8579 380.673 35.1065C378.745 33.0929 376.189 31.7262 373.383 31.2089C372.53 31.0284 371.666 30.8946 370.796 30.8084C370.382 30.7653 370.385 31.3851 370.796 31.4271C373.806 31.6171 376.686 32.6663 379.062 34.4387C380.794 35.8719 381.978 37.8143 382.426 39.9602C383.413 44.5106 381.728 49.955 377.054 51.9874C372.567 53.9407 366.444 52.6652 362.84 49.5726C359.697 46.7942 358.501 42.5426 359.761 38.6347C361.088 33.9713 365.763 30.9171 370.796 31.4261C371.216 31.4532 371.216 30.8344 370.796 30.8074" fill="#003849"/>
<path fill-rule="evenodd" clip-rule="evenodd" d="M370.87 33.9271C367.434 33.6447 364.191 35.4819 362.804 38.4965C361.476 41.3513 361.944 44.6769 364.014 47.0956C366.682 49.855 370.724 50.9888 374.532 50.0461C378.422 48.9739 380.223 45.2034 379.905 41.5451C379.775 39.6713 378.942 37.905 377.56 36.5692C375.701 34.9973 373.344 34.0662 370.866 33.9251C370.452 33.881 370.455 34.5008 370.866 34.5438C374.664 34.9443 378.288 36.7764 379.114 40.598C379.812 43.8268 378.613 47.6913 375.29 49.125C371.831 50.3791 367.928 49.6935 365.163 47.3459C362.971 45.3627 362.153 42.3598 363.056 39.6078C364.064 36.3598 367.332 34.241 370.866 34.5428C371.285 34.5688 371.285 33.9501 370.866 33.9241" fill="#003849"/>
<path fill-rule="evenodd" clip-rule="evenodd" d="M354.525 34.2434C356.443 33.1061 359.176 34.2855 360.187 36.0396C360.389 36.388 360.95 36.0766 360.747 35.7272C359.566 33.6828 356.408 32.3963 354.195 33.7088C353.841 33.9191 354.167 34.4547 354.523 34.2434" fill="#003849"/>
<path fill-rule="evenodd" clip-rule="evenodd" d="M354.033 36.6013C355.836 35.4489 358.379 36.5372 359.292 38.2552C359.481 38.6106 360.04 38.2983 359.852 37.9428C358.786 35.9405 355.79 34.7391 353.705 36.0666C353.36 36.2869 353.684 36.8235 354.033 36.6013Z" fill="#003849"/>
<path fill-rule="evenodd" clip-rule="evenodd" d="M336.845 29.9364L342.502 27.4334C342.881 27.2662 342.551 26.7326 342.174 26.8988L336.517 29.4017C336.139 29.5689 336.467 30.1026 336.845 29.9364Z" fill="#003849"/>
<path fill-rule="evenodd" clip-rule="evenodd" d="M338.747 33.3734C341.362 32.2161 343.966 31.0347 346.582 29.8773C346.96 29.7101 346.632 29.1765 346.255 29.3427C343.64 30.5 341.035 31.6814 338.42 32.8388C338.043 33.006 338.371 33.5396 338.748 33.3734" fill="#003849"/>
<path fill-rule="evenodd" clip-rule="evenodd" d="M342.811 35.2066C343.588 34.8942 344.342 34.5338 345.107 34.1954C345.26 34.1078 345.311 33.9195 345.222 33.7719C345.13 33.627 344.934 33.5778 344.779 33.6608C344.065 33.9782 343.363 34.3196 342.638 34.6109C342.469 34.6611 342.37 34.8274 342.411 34.9914C342.46 35.1556 342.638 35.2519 342.811 35.2076" fill="#003849"/>
<path fill-rule="evenodd" clip-rule="evenodd" d="M365.039 41.6202L372.583 38.2852C372.961 38.1181 372.632 37.5844 372.256 37.7506L364.712 41.0856C364.335 41.2528 364.663 41.7864 365.039 41.6202Z" fill="#003849"/>
<path fill-rule="evenodd" clip-rule="evenodd" d="M369.778 44.9932C371.246 44.313 372.725 43.6592 374.216 43.0318C374.369 42.945 374.421 42.7561 374.332 42.6083C374.239 42.4639 374.044 42.4149 373.888 42.4972C372.397 43.1253 370.917 43.779 369.451 44.4585C369.075 44.6327 369.405 45.1664 369.778 44.9932Z" fill="#003849"/>
<path fill-rule="evenodd" clip-rule="evenodd" d="M374.085 46.2164L374.479 45.9985C374.516 45.9744 374.548 45.9395 374.571 45.8971C374.6 45.8594 374.62 45.8136 374.63 45.764C374.643 45.7135 374.644 45.6598 374.635 45.6081C374.633 45.5562 374.619 45.5059 374.596 45.4624C374.553 45.3744 374.483 45.3099 374.4 45.2824L374.312 45.2685C374.254 45.2685 374.197 45.2868 374.147 45.3217L373.754 45.5397C373.717 45.5639 373.685 45.5987 373.662 45.6411C373.605 45.7211 373.581 45.827 373.597 45.93C373.599 45.9819 373.612 46.0323 373.636 46.0758C373.679 46.164 373.749 46.2286 373.832 46.2557L373.919 46.2697C373.977 46.2699 374.034 46.2515 374.084 46.2164" fill="#003849"/>
<path fill-rule="evenodd" clip-rule="evenodd" d="M86.7126 39.1863C83.3183 39.802 79.9376 40.4989 76.5727 41.2477C75.1885 41.5561 73.7929 41.8545 72.437 42.2609C72.1261 42.3263 71.8286 42.4399 71.5562 42.5973C71.2551 42.9209 71.0894 43.3389 71.0906 43.7717C70.8865 45.3882 70.8066 47.0168 70.8515 48.6445C70.8534 48.7546 70.9158 48.8557 71.0157 48.9105C71.1158 48.9653 71.2387 48.9658 71.3391 48.9118C72.1076 48.3859 72.7964 47.7613 73.386 47.0556C73.7106 46.6229 74.0879 46.2287 74.5101 45.8812C75.3306 45.3561 76.1947 44.8961 77.0938 44.5056C79.5224 43.3452 82.0075 42.303 84.4339 41.1356C85.3499 40.748 86.2196 40.2677 87.0282 39.7029C87.3522 39.4516 86.8918 39.0161 86.57 39.2644C85.8704 39.7469 85.1201 40.1586 84.3312 40.4929C83.1777 41.0505 82.0086 41.5771 80.8394 42.1038C78.6204 42.9977 76.4676 44.0346 74.3959 45.2074C73.061 46.0394 72.35 47.5101 71.0109 48.3752L71.4986 48.6435C71.4986 47.2879 71.5132 45.9273 71.6401 44.5767C71.6747 44.2102 71.6831 43.3502 71.918 43.1059C72.1688 42.973 72.4398 42.8781 72.7212 42.8246C75.7411 41.9436 78.8785 41.3649 81.9635 40.7391C83.6003 40.4067 85.2404 40.0804 86.8856 39.781C87.2945 39.7069 87.1215 39.1102 86.7126 39.1803" fill="#003849"/>
<path fill-rule="evenodd" clip-rule="evenodd" d="M74.0579 46.3888C75.3006 47.4901 76.3271 48.7816 77.5341 49.914C78.0468 50.3955 78.721 50.9292 79.3261 50.2944C79.9592 49.5853 80.5521 48.8443 81.1024 48.0748C82.0787 46.7963 83.0328 45.5038 83.9766 44.2032C85.1608 42.572 86.3244 40.9274 87.4674 39.2694C87.697 38.935 87.136 38.6246 86.9074 38.957C84.7483 42.0987 82.5201 45.2054 80.1838 48.23C79.8304 48.6875 79.476 49.1441 79.1027 49.5866C78.8227 49.916 78.7682 50.0942 78.3603 49.7968C77.769 49.3057 77.2276 48.7623 76.7434 48.1739C76.0304 47.406 75.3036 46.6511 74.5162 45.9513C74.211 45.68 73.7507 46.1175 74.0579 46.3898" fill="#003849"/>
<path fill-rule="evenodd" clip-rule="evenodd" d="M87.1873 38.8039C83.3873 38.6347 79.5882 38.4214 75.7839 38.3303C73.9541 38.2862 72.1138 38.2452 70.2851 38.3523C69.7608 38.3824 68.1218 38.3233 68.0055 39.0531C67.9006 39.7059 68.9398 40.599 69.334 41.0225C70.0041 41.7554 70.7169 42.4516 71.469 43.108C71.7783 43.3743 72.2376 42.9377 71.9272 42.6704C71.34 42.1698 70.7895 41.6162 70.2494 41.0685C69.9348 40.7441 69.6203 40.4138 69.3277 40.0673C69.1872 39.9042 69.0488 39.739 68.924 39.5668C68.8543 39.4235 68.7696 39.2873 68.6713 39.1603C68.5277 39.0461 68.7111 39.2244 68.6094 39.2234C68.5706 39.2234 68.6587 39.2093 68.6409 39.2073C68.8271 39.182 69.0102 39.1387 69.1872 39.0782C69.7492 38.9998 70.3159 38.9556 70.8839 38.946C74.5822 38.8069 78.3058 39.0111 81.9989 39.1783C83.728 39.2564 85.4593 39.3485 87.1873 39.4256C87.6068 39.4436 87.6068 38.8249 87.1873 38.8069" fill="#003849"/>
<path fill-rule="evenodd" clip-rule="evenodd" d="M55.0557 70.236C59.0926 69.0693 62.1338 65.8822 62.9757 61.9362C63.2879 60.4073 63.0163 58.8222 62.2103 57.4679C61.4433 56.1322 60.27 55.05 58.8454 54.3642C57.6212 53.7487 56.1298 53.8939 55.061 54.7327C53.8163 55.7459 52.859 57.7362 53.7177 59.218C54.6027 60.7458 56.7587 61.1142 58.4218 61.0652C60.6081 61.0062 62.6813 60.1241 64.189 58.6113C65.3917 57.3628 65.8196 55.6498 66.3816 54.0879C66.6422 53.2506 67.043 52.4591 67.5686 51.7441C68.1504 50.9745 69.032 50.4606 70.015 50.3185C70.194 50.3185 70.339 50.1799 70.339 50.0091C70.339 49.8382 70.1939 49.6997 70.015 49.6997C68.7014 49.8654 67.5351 50.5853 66.8378 51.661C66.1508 52.8087 65.6251 54.0377 65.2743 55.3164C64.8844 56.6962 64.0702 57.9328 62.937 58.8665C61.2039 60.1723 58.9693 60.7092 56.7954 60.3423C55.104 60.0419 53.5825 58.9176 54.1896 57.1235C54.6625 55.7309 55.9062 54.3853 57.565 54.6205C58.9427 54.929 60.1539 55.7096 60.9688 56.8141C61.9158 57.879 62.4426 59.2268 62.4578 60.6236C62.4179 64.7695 58.9219 68.4689 54.889 69.6413C54.4916 69.7564 54.6615 70.3541 55.0621 70.242" fill="#003849"/>
<path fill-rule="evenodd" clip-rule="evenodd" d="M16.9663 133.167C35.8955 114.846 59.7489 112.618 84.9047 111.132C82.0525 116.579 69.8647 122.521 63.9003 125.492C58.0566 128.269 51.9863 130.587 45.7492 132.425C36.4167 134.653 26.5599 132.92 17.2274 133.167" fill="#D67676"/>
<path fill-rule="evenodd" clip-rule="evenodd" d="M17.8495 133.526C25.6521 130.766 33.4368 127.947 41.3453 125.471C49.0703 123.053 56.961 121.241 64.7646 119.084C68.9979 117.955 73.1498 116.563 77.1936 114.919C77.6518 114.728 77.2565 114.088 76.8014 114.278C69.5105 117.322 61.7436 119.126 54.0826 121.086C46.1856 123.111 38.4302 125.537 30.7399 128.195C26.363 129.704 22.0072 131.266 17.643 132.81C17.1773 132.975 17.3797 133.693 17.8526 133.527" fill="#003849"/>
<path fill-rule="evenodd" clip-rule="evenodd" d="M37.0512 122.012C34.6499 124.287 31.5566 125.963 29.5999 128.648C29.5116 128.794 29.5365 128.979 29.6607 129.099C31.1843 130.362 33.3235 130.518 35.148 131.175C35.6178 131.343 35.8202 130.626 35.3578 130.458C33.68 129.857 31.609 129.73 30.2144 128.573L30.2752 129.023C32.1847 126.401 35.2571 124.76 37.6049 122.538C37.7569 122.392 37.7562 122.156 37.6033 122.011C37.4504 121.866 37.2032 121.866 37.0512 122.012" fill="#003849"/>
<path fill-rule="evenodd" clip-rule="evenodd" d="M46.84 118.496C45.2304 120.652 43.1206 122.427 41.6536 124.685C41.5939 124.785 41.5856 124.906 41.631 125.013C41.6764 125.119 41.7706 125.2 41.8864 125.232C45.1486 125.997 48.567 126.096 51.7432 127.212C52.214 127.378 52.4164 126.66 51.9529 126.495C48.7799 125.379 45.3615 125.281 42.0961 124.515C42.1737 124.697 42.2503 124.88 42.3289 125.062C43.797 122.805 45.9046 121.026 47.5152 118.872C47.8057 118.482 47.1315 118.112 46.8431 118.497" fill="#003849"/>
<path fill-rule="evenodd" clip-rule="evenodd" d="M56.8278 116.392C55.9072 117.993 54.6436 119.589 54.3258 121.433C54.2759 121.63 54.3948 121.83 54.5975 121.89C56.5031 122.516 58.4528 123.013 60.4319 123.376C60.9205 123.469 61.1302 122.753 60.6415 122.659C58.6622 122.297 56.7124 121.8 54.8072 121.173C54.8967 121.325 54.9872 121.478 55.0788 121.63C55.387 119.85 56.6129 118.315 57.5031 116.767C57.7443 116.348 57.0732 115.972 56.831 116.392" fill="#003849"/>
<path fill-rule="evenodd" clip-rule="evenodd" d="M66.6392 115.243C66.1938 116.297 65.8042 117.371 65.4721 118.462C65.4282 118.624 65.5011 118.795 65.6514 118.882C66.7756 119.341 67.9318 119.726 69.1118 120.033C69.5889 120.183 69.7923 119.466 69.3215 119.316C68.2042 119.03 67.109 118.67 66.0436 118.24L66.2219 118.658C66.5543 117.567 66.9438 116.493 67.3889 115.439C67.5494 114.985 66.7986 114.791 66.6392 115.239" fill="#003849"/>
<path fill-rule="evenodd" clip-rule="evenodd" d="M51.0658 118.684C50.7222 118.703 50.4536 118.974 50.4536 119.303C50.4536 119.632 50.7222 119.903 51.0658 119.922C51.4093 119.903 51.6779 119.632 51.6779 119.303C51.6779 118.974 51.4093 118.703 51.0658 118.684Z" fill="#003849"/>
<path fill-rule="evenodd" clip-rule="evenodd" d="M52.7518 116.951C52.4083 116.97 52.1396 117.241 52.1396 117.57C52.1396 117.898 52.4083 118.17 52.7518 118.189C53.0954 118.17 53.3639 117.898 53.3639 117.57C53.3639 117.241 53.0954 116.97 52.7518 116.951Z" fill="#003849"/>
<path fill-rule="evenodd" clip-rule="evenodd" d="M63.2533 120.417C62.9097 120.436 62.6411 120.707 62.6411 121.036C62.6411 121.365 62.9097 121.636 63.2533 121.655C63.5968 121.636 63.8654 121.365 63.8654 121.036C63.8654 120.707 63.5968 120.436 63.2533 120.417Z" fill="#003849"/>
<path fill-rule="evenodd" clip-rule="evenodd" d="M65.0687 121.407C64.7252 121.426 64.4565 121.698 64.4565 122.026C64.4565 122.355 64.7252 122.626 65.0687 122.645C65.4123 122.626 65.6808 122.355 65.6808 122.026C65.6808 121.698 65.4123 121.426 65.0687 121.407Z" fill="#003849"/>
<path fill-rule="evenodd" clip-rule="evenodd" d="M79.5897 113.114C79.2461 113.132 78.9775 113.404 78.9775 113.732C78.9775 114.061 79.2461 114.332 79.5897 114.351C79.9333 114.332 80.2018 114.061 80.2018 113.732C80.2018 113.404 79.9333 113.132 79.5897 113.114Z" fill="#003849"/>
<path fill-rule="evenodd" clip-rule="evenodd" d="M1.25747 113.194C0.479414 99.5777 1.25747 86.2069 10.0741 74.8184C17.5935 65.4073 30.5594 57.7352 42.2281 54.2691C41.9691 66.6488 35.7457 82.4935 27.4429 91.9016C23.2914 96.5275 18.5956 100.681 13.4485 104.281C9.81819 107.004 5.92898 111.461 1.26061 112.452" fill="#5596A5"/>
<path fill-rule="evenodd" clip-rule="evenodd" d="M2.6698 111.064C6.05245 103.591 10.1492 96.4321 14.9078 89.6771C17.1372 86.4401 19.4987 83.2984 21.8129 80.1187C24.0538 77.041 26.1373 73.8623 28.3498 70.7676C30.6932 67.2988 33.4405 64.0946 36.5393 61.2163C36.9084 60.892 36.3559 60.3673 35.9889 60.6917C30.2604 65.7377 26.3648 72.4056 22.0321 78.5048C19.7441 81.7286 17.3281 84.8663 15.0642 88.1081C12.7153 91.4711 10.4587 94.8941 8.36577 98.4093C5.95971 102.436 3.80736 106.596 1.9201 110.868C1.72713 111.308 2.47895 111.5 2.6698 111.068" fill="#003849"/>
<path fill-rule="evenodd" clip-rule="evenodd" d="M4.88879 93.7598C5.04015 96.7814 5.39043 99.7909 5.93738 102.77C5.98526 102.931 6.13803 103.042 6.31275 103.044C8.01287 103.098 9.70845 102.846 11.3114 102.303C12.9516 101.818 14.5531 101.221 16.1036 100.517C16.5565 100.317 16.1612 99.6728 15.7113 99.876C14.2203 100.551 12.6805 101.123 11.1039 101.587C9.5681 102.111 7.9426 102.353 6.31275 102.301L6.68818 102.574C6.15409 99.6607 5.81233 96.7181 5.66474 93.7638C5.64272 93.2882 4.86466 93.2852 4.88668 93.7638" fill="#003849"/>
<path fill-rule="evenodd" clip-rule="evenodd" d="M11.76 81.5033C12.0148 85.1947 11.0794 88.9982 12.1626 92.6165C12.212 92.776 12.3638 92.8866 12.5381 92.8898C14.5347 92.8928 16.5203 92.6066 18.4269 92.0408C20.3821 91.5648 22.2601 90.8359 24.0086 89.8742C24.4353 89.6259 24.0453 88.9832 23.6164 89.2335C21.9252 90.167 20.1078 90.8744 18.2151 91.336C16.3756 91.8836 14.4596 92.1608 12.5328 92.1579L12.9082 92.4312C11.847 88.883 12.7823 85.1316 12.5328 81.5123C12.5003 81.0378 11.7222 81.0338 11.7547 81.5123" fill="#003849"/>
<path fill-rule="evenodd" clip-rule="evenodd" d="M18.5017 73.8293C18.5017 75.0988 18.3968 76.3673 18.3769 77.6338C18.2556 79.1344 18.3701 80.6438 18.7166 82.1121C18.7997 82.5396 19.0926 82.903 19.5042 83.0892C20.0004 83.2405 20.5241 83.2927 21.0424 83.2424C22.6765 83.1343 24.2975 82.8901 25.8869 82.5125C27.355 82.2032 28.8136 81.8377 30.2743 81.4883C30.4735 81.4269 30.5865 81.2262 30.5301 81.0337C30.4738 80.8411 30.2683 80.7254 30.0645 80.7715C27.3927 81.5037 24.671 82.059 21.9191 82.4334C21.2133 82.5065 19.7935 82.8029 19.4989 82.0179C19.1435 80.688 19.0255 79.3105 19.1497 77.9431C19.1602 76.5705 19.2713 75.1989 19.2777 73.8273C19.2777 73.6221 19.1035 73.4558 18.8886 73.4558C18.6738 73.4558 18.4996 73.6221 18.4996 73.8273" fill="#003849"/>
<path fill-rule="evenodd" clip-rule="evenodd" d="M25.6334 65.2871C25.626 66.4816 25.4572 67.675 25.4163 68.8694C25.2448 70.0674 25.3938 71.2874 25.8494 72.4156C26.3663 73.3046 27.6173 73.1254 28.5002 72.9892C29.9806 72.7253 31.4321 72.3308 32.8361 71.8109C34.149 71.3593 35.4576 70.8677 36.7159 70.3091C37.17 70.1088 36.7757 69.4691 36.3237 69.6683C34.0537 70.6942 31.6833 71.5041 29.2469 72.0862C28.6933 72.2235 28.1272 72.3103 27.5565 72.3455C27.2503 72.3575 26.8151 72.3915 26.5907 72.1543C26.3451 71.763 26.2191 71.3139 26.2269 70.8577C26.173 70.2347 26.1594 69.6091 26.186 68.9845C26.2226 67.751 26.3957 66.5186 26.4072 65.2851C26.4072 65.08 26.233 64.9137 26.0182 64.9137C25.8033 64.9137 25.6292 65.08 25.6292 65.2851" fill="#003849"/>
<path fill-rule="evenodd" clip-rule="evenodd" d="M20.0575 69.2488C19.7139 69.2675 19.4453 69.539 19.4453 69.8676C19.4453 70.1962 19.7139 70.4676 20.0575 70.4863C20.401 70.4676 20.6696 70.1961 20.6696 69.8676C20.6696 69.539 20.401 69.2675 20.0575 69.2488Z" fill="#003849"/>
<path fill-rule="evenodd" clip-rule="evenodd" d="M21.8729 67.3876C21.5293 67.4063 21.2607 67.6778 21.2607 68.0064C21.2607 68.335 21.5293 68.6064 21.8729 68.6251C22.2165 68.6064 22.485 68.3349 22.485 68.0064C22.485 67.6778 22.2165 67.4063 21.8729 67.3876Z" fill="#003849"/>
<path fill-rule="evenodd" clip-rule="evenodd" d="M22.391 69.9907C22.0474 70.0094 21.7788 70.2809 21.7788 70.6095C21.7788 70.938 22.0474 71.2095 22.391 71.2282C22.7345 71.2095 23.0031 70.938 23.0031 70.6095C23.0031 70.2809 22.7345 70.0094 22.391 69.9907Z" fill="#003849"/>
<path fill-rule="evenodd" clip-rule="evenodd" d="M30.4296 76.9239C30.0859 76.9426 29.8174 77.214 29.8174 77.5426C29.8174 77.8712 30.0859 78.1427 30.4296 78.1614C30.7731 78.1427 31.0417 77.8712 31.0417 77.5426C31.0417 77.2141 30.7731 76.9426 30.4296 76.9239Z" fill="#003849"/>
<path fill-rule="evenodd" clip-rule="evenodd" d="M32.2445 74.5671C31.9009 74.5858 31.6323 74.8572 31.6323 75.1858C31.6323 75.5144 31.9009 75.7859 32.2445 75.8046C32.5881 75.7859 32.8566 75.5144 32.8566 75.1858C32.8566 74.8573 32.5881 74.5858 32.2445 74.5671Z" fill="#003849"/>
<path fill-rule="evenodd" clip-rule="evenodd" d="M33.1527 77.1712C32.8091 77.1899 32.5405 77.4613 32.5405 77.7899C32.5405 78.1185 32.8091 78.39 33.1527 78.4087C33.4963 78.39 33.7648 78.1185 33.7648 77.7899C33.7648 77.4614 33.4963 77.1899 33.1527 77.1712Z" fill="#003849"/>
<path fill-rule="evenodd" clip-rule="evenodd" d="M16.1673 95.3647C15.8237 95.3834 15.5552 95.6549 15.5552 95.9834C15.5552 96.312 15.8237 96.5835 16.1673 96.6022C16.5108 96.5835 16.7794 96.312 16.7794 95.9834C16.7794 95.6549 16.5108 95.3834 16.1673 95.3647Z" fill="#003849"/>
<path fill-rule="evenodd" clip-rule="evenodd" d="M18.8904 94.6218C18.5469 94.6405 18.2783 94.912 18.2783 95.2406C18.2783 95.5691 18.5469 95.8406 18.8904 95.8593C19.234 95.8406 19.5025 95.5691 19.5025 95.2406C19.5025 94.912 19.234 94.6405 18.8904 94.6218Z" fill="#003849"/>
<path fill-rule="evenodd" clip-rule="evenodd" d="M7.22197 87.0749C6.87841 87.0936 6.60986 87.3651 6.60986 87.6936C6.60986 88.0222 6.87841 88.2936 7.22197 88.3123C7.56553 88.2936 7.83408 88.0222 7.83408 87.6936C7.83408 87.3651 7.56553 87.0936 7.22197 87.0749Z" fill="#003849"/>
<path fill-rule="evenodd" clip-rule="evenodd" d="M7.74004 84.2235C7.39648 84.2422 7.12793 84.5137 7.12793 84.8423C7.12793 85.1708 7.39648 85.4423 7.74004 85.461C8.08359 85.4423 8.35214 85.1708 8.35214 84.8423C8.35214 84.5137 8.08359 84.2422 7.74004 84.2235Z" fill="#003849"/>
<path fill-rule="evenodd" clip-rule="evenodd" d="M38.598 62.5639C38.2544 62.5826 37.9858 62.8541 37.9858 63.1827C37.9858 63.5113 38.2544 63.7827 38.598 63.8014C38.9416 63.7827 39.2101 63.5112 39.2101 63.1827C39.2101 62.8541 38.9416 62.5826 38.598 62.5639Z" fill="#003849"/>
<path fill-rule="evenodd" clip-rule="evenodd" d="M0.50565 133.29C0.0998838 125.795 -0.765218 109.41 1.18829 101.938C4.85836 89.5769 9.98913 97.1178 11.7791 105.423C16.5124 91.414 22.1465 77.4806 29.3011 96.6432C31.8177 94.9412 40.6374 81.9709 44.9409 88.5757C46.5137 91.3089 38.6398 99.851 36.9453 102.486C42.356 102.936 53.7354 103.711 46.1583 111.061C42.3697 114.737 34.0995 115.783 29.3503 117.99C35.083 120.894 43.7863 125.093 33.3937 129.433C26.5548 132.68 8.01777 132.699 0.509874 133.289" fill="#003849"/>
<path fill-rule="evenodd" clip-rule="evenodd" d="M1.45663 134.182C12.1701 123.361 22.6602 112.329 32.6795 100.914C35.4507 97.7579 38.1815 94.5698 40.8722 91.35C41.3871 90.7332 40.4748 89.8482 39.9547 90.4749C30.2405 102.112 19.9549 113.308 9.3966 124.25C6.46542 127.287 3.51331 130.306 0.540202 133.307C-0.0323516 133.885 0.883055 134.762 1.45772 134.182" fill="#5596A5"/>
<path fill-rule="evenodd" clip-rule="evenodd" d="M21.8729 95.616C21.8614 100.733 21.0991 105.853 21.6139 110.966C21.6264 111.303 21.9093 111.573 22.2619 111.585C27.8059 112.085 33.3194 110.859 38.858 110.842C39.2016 110.823 39.4701 110.552 39.4701 110.223C39.4701 109.895 39.2016 109.623 38.858 109.605C33.3194 109.622 27.8059 110.851 22.2619 110.347L22.91 110.966C22.3951 105.853 23.1574 100.732 23.169 95.616C23.1494 95.2879 22.8651 95.0315 22.5209 95.0315C22.1768 95.0315 21.8925 95.2879 21.8729 95.616Z" fill="#5596A5"/>
<path fill-rule="evenodd" clip-rule="evenodd" d="M7.34769 109.976C7.34769 115.296 7.01527 120.74 8.14879 125.986C8.22789 126.255 8.48518 126.441 8.77798 126.44C14.5389 126.201 20.3324 126.686 26.065 125.923C26.8871 125.814 26.538 124.621 25.7201 124.729C20.1122 125.475 14.4162 124.968 8.77798 125.202L9.40711 125.656C8.29874 120.526 8.64896 115.179 8.65209 109.976C8.63257 109.648 8.34821 109.391 8.00408 109.391C7.65995 109.391 7.37559 109.648 7.35607 109.976" fill="#5596A5"/>
<path fill-rule="evenodd" clip-rule="evenodd" d="M17.8528 104.096C17.328 104.113 16.9116 104.523 16.9116 105.025C16.9116 105.526 17.328 105.937 17.8527 105.953C18.3774 105.937 18.7938 105.526 18.7938 105.025C18.7938 104.523 18.3774 104.113 17.8528 104.096" fill="#5596A5"/>
<path fill-rule="evenodd" clip-rule="evenodd" d="M17.8528 99.3914C17.328 99.4079 16.9116 99.8188 16.9116 100.32C16.9116 100.821 17.328 101.232 17.8527 101.249C18.3774 101.232 18.7938 100.821 18.7938 100.32C18.7938 99.8188 18.3774 99.4079 17.8528 99.3915" fill="#5596A5"/>
<path fill-rule="evenodd" clip-rule="evenodd" d="M26.6691 100.134C26.1444 100.151 25.728 100.562 25.728 101.063C25.728 101.564 26.1444 101.975 26.6691 101.992C27.1938 101.975 27.6102 101.564 27.6102 101.063C27.6102 100.562 27.1938 100.151 26.6692 100.134" fill="#5596A5"/>
<path fill-rule="evenodd" clip-rule="evenodd" d="M39.6349 105.333C39.1102 105.35 38.6938 105.761 38.6938 106.262C38.6938 106.763 39.1102 107.174 39.6349 107.191C40.1596 107.174 40.5761 106.763 40.5761 106.262C40.5761 105.761 40.1596 105.35 39.6349 105.333" fill="#5596A5"/>
<path fill-rule="evenodd" clip-rule="evenodd" d="M43.5241 106.819C42.9994 106.836 42.583 107.247 42.583 107.748C42.583 108.249 42.9994 108.66 43.5241 108.676C44.0488 108.66 44.4652 108.249 44.4652 107.748C44.4652 107.247 44.0488 106.836 43.5241 106.819" fill="#5596A5"/>
<path fill-rule="evenodd" clip-rule="evenodd" d="M22.5197 118.456C21.995 118.472 21.5786 118.883 21.5786 119.385C21.5786 119.886 21.995 120.297 22.5197 120.313C23.0444 120.297 23.4608 119.886 23.4608 119.385C23.4608 118.883 23.0444 118.472 22.5197 118.456" fill="#5596A5"/>
<path fill-rule="evenodd" clip-rule="evenodd" d="M33.1515 123.408C32.6268 123.424 32.2104 123.835 32.2104 124.336C32.2104 124.838 32.6268 125.249 33.1515 125.265C33.6762 125.249 34.0927 124.838 34.0927 124.336C34.0927 123.835 33.6763 123.424 33.1516 123.408" fill="#5596A5"/>
<path fill-rule="evenodd" clip-rule="evenodd" d="M7.22086 101.867C6.69618 101.884 6.27979 102.295 6.27979 102.796C6.27979 103.297 6.69618 103.708 7.22086 103.725C7.74554 103.708 8.16199 103.297 8.16199 102.796C8.16199 102.295 7.74554 101.884 7.22086 101.867" fill="#5596A5"/>
<path fill-rule="evenodd" clip-rule="evenodd" d="M4.10953 119.693C3.58485 119.71 3.16846 120.121 3.16846 120.622C3.16846 121.123 3.58485 121.534 4.10953 121.551C4.63427 121.534 5.05066 121.123 5.05066 120.622C5.05066 120.121 4.63427 119.71 4.10953 119.693" fill="#5596A5"/>
<path fill-rule="evenodd" clip-rule="evenodd" d="M375.993 133.167C357.064 114.846 333.21 112.618 308.055 111.132C310.907 116.579 323.095 122.521 329.059 125.492C334.903 128.269 340.973 130.587 347.21 132.425C356.543 134.653 366.4 132.92 375.732 133.167" fill="#FFD066"/>
<path fill-rule="evenodd" clip-rule="evenodd" d="M375.319 132.809C367.516 130.05 359.731 127.23 351.823 124.755C344.21 122.374 336.441 120.575 328.748 118.463C324.461 117.334 320.258 115.936 316.165 114.278C315.71 114.089 315.313 114.729 315.772 114.919C322.982 117.929 330.639 119.752 338.219 121.689C346.232 123.738 354.102 126.18 361.903 128.869C366.319 130.392 370.711 131.968 375.115 133.525C375.585 133.691 375.787 132.973 375.325 132.808" fill="#003849"/>
<path fill-rule="evenodd" clip-rule="evenodd" d="M355.363 122.536C357.71 124.758 360.783 126.399 362.693 129.022L362.754 128.572C361.359 129.729 359.284 129.855 357.609 130.457C357.146 130.624 357.346 131.342 357.819 131.174C359.645 130.518 361.783 130.362 363.307 129.098C363.432 128.978 363.456 128.793 363.368 128.647C361.412 125.961 358.318 124.286 355.917 122.011C355.765 121.866 355.518 121.866 355.366 122.011C355.214 122.156 355.214 122.392 355.366 122.537" fill="#003849"/>
<path fill-rule="evenodd" clip-rule="evenodd" d="M345.449 118.871C347.058 121.026 349.17 122.804 350.635 125.061L350.868 124.514C347.606 125.28 344.187 125.379 341.011 126.494C340.545 126.659 340.747 127.377 341.221 127.211C344.394 126.095 347.812 125.996 351.077 125.231C351.193 125.199 351.287 125.118 351.333 125.012C351.378 124.905 351.37 124.784 351.31 124.684C349.842 122.426 347.734 120.651 346.124 118.495C345.836 118.11 345.16 118.48 345.452 118.87" fill="#003849"/>
<path fill-rule="evenodd" clip-rule="evenodd" d="M335.465 116.767C336.355 118.315 337.581 119.85 337.889 121.63L338.161 121.173C336.256 121.8 334.306 122.297 332.327 122.659C331.837 122.753 332.043 123.47 332.536 123.376C334.515 123.013 336.465 122.516 338.371 121.89C338.572 121.829 338.691 121.63 338.642 121.434C338.328 119.59 337.061 117.995 336.14 116.393C335.899 115.974 335.227 116.348 335.468 116.768" fill="#003849"/>
<path fill-rule="evenodd" clip-rule="evenodd" d="M325.571 115.44C326.017 116.494 326.406 117.568 326.739 118.659L326.918 118.24C325.852 118.671 324.757 119.03 323.639 119.316C323.166 119.465 323.368 120.183 323.849 120.033C325.029 119.726 326.185 119.341 327.309 118.881C327.459 118.795 327.532 118.625 327.487 118.463C327.156 117.372 326.766 116.298 326.32 115.244C326.162 114.793 325.409 114.987 325.57 115.444" fill="#003849"/>
<path fill-rule="evenodd" clip-rule="evenodd" d="M341.895 118.684C342.238 118.703 342.507 118.974 342.507 119.303C342.507 119.632 342.238 119.903 341.895 119.922C341.551 119.903 341.283 119.632 341.283 119.303C341.283 118.974 341.551 118.703 341.895 118.684Z" fill="#003849"/>
<path fill-rule="evenodd" clip-rule="evenodd" d="M340.209 116.951C340.552 116.97 340.821 117.241 340.821 117.57C340.821 117.898 340.552 118.17 340.209 118.189C339.865 118.17 339.597 117.898 339.597 117.57C339.597 117.241 339.865 116.97 340.209 116.951Z" fill="#003849"/>
<path fill-rule="evenodd" clip-rule="evenodd" d="M329.707 120.417C330.051 120.436 330.319 120.707 330.319 121.036C330.319 121.365 330.051 121.636 329.707 121.655C329.363 121.636 329.095 121.365 329.095 121.036C329.095 120.707 329.363 120.436 329.707 120.417Z" fill="#003849"/>
<path fill-rule="evenodd" clip-rule="evenodd" d="M327.892 121.407C328.236 121.426 328.504 121.698 328.504 122.026C328.504 122.355 328.236 122.626 327.892 122.645C327.548 122.626 327.28 122.355 327.28 122.026C327.28 121.698 327.548 121.426 327.892 121.407Z" fill="#003849"/>
<path fill-rule="evenodd" clip-rule="evenodd" d="M313.371 113.114C313.715 113.132 313.983 113.404 313.983 113.732C313.983 114.061 313.715 114.332 313.371 114.351C313.028 114.332 312.759 114.061 312.759 113.732C312.759 113.404 313.028 113.132 313.371 113.114Z" fill="#003849"/>
<path fill-rule="evenodd" clip-rule="evenodd" d="M391.703 113.194C392.481 99.5777 391.703 86.2069 382.886 74.8184C375.366 65.4073 362.401 57.7352 350.732 54.2691C350.991 66.6488 357.215 82.4935 365.518 91.9016C369.672 96.5279 374.37 100.682 379.52 104.281C383.151 107.004 387.041 111.461 391.708 112.452" fill="#5596A5"/>
<path fill-rule="evenodd" clip-rule="evenodd" d="M391.042 110.868C387.655 103.367 383.554 96.1796 378.79 89.3956C376.523 86.0988 374.114 82.902 371.764 79.6631C369.505 76.5545 367.402 73.3437 365.158 70.222C362.812 66.7623 360.066 63.5655 356.971 60.6917C356.604 60.3683 356.052 60.892 356.42 61.2163C362.128 66.2443 365.994 72.8861 370.315 78.9633C372.565 82.1271 374.935 85.2097 377.159 88.3905C379.488 91.7224 381.728 95.1124 383.807 98.5915C386.229 102.621 388.394 106.786 390.29 111.064C390.481 111.499 391.234 111.309 391.04 110.864" fill="#003849"/>
<path fill-rule="evenodd" clip-rule="evenodd" d="M387.296 93.7598C387.148 96.7142 386.807 99.6569 386.272 102.57L386.648 102.297C385.018 102.349 383.393 102.107 381.858 101.583C380.281 101.119 378.741 100.547 377.25 99.872C376.8 99.6718 376.404 100.31 376.858 100.513C378.409 101.217 380.01 101.814 381.65 102.299C383.253 102.842 384.948 103.094 386.648 103.04C386.822 103.037 386.974 102.926 387.023 102.766C387.57 99.7869 387.921 96.7774 388.072 93.7558C388.095 93.2782 387.317 93.2792 387.294 93.7558" fill="#003849"/>
<path fill-rule="evenodd" clip-rule="evenodd" d="M380.423 81.5033C380.175 85.1226 381.11 88.874 380.048 92.4222L380.423 92.1489C378.496 92.1518 376.581 91.8746 374.741 91.3269C372.848 90.8655 371.031 90.1581 369.34 89.2244C368.912 88.9751 368.52 89.6169 368.948 89.8652C370.697 90.8297 372.577 91.561 374.534 92.0388C376.441 92.6046 378.427 92.8908 380.423 92.8878C380.598 92.8842 380.749 92.7738 380.799 92.6145C381.882 88.9942 380.947 85.1887 381.201 81.5013C381.234 81.0237 380.456 81.0257 380.423 81.5013" fill="#003849"/>
<path fill-rule="evenodd" clip-rule="evenodd" d="M373.682 73.8292C373.682 74.9956 373.779 76.163 373.802 77.3334C373.904 78.7776 373.825 80.2282 373.567 81.6545C373.488 81.9859 373.426 82.3223 373.096 82.4314C372.597 82.5428 372.08 82.5615 371.573 82.4865C370.001 82.343 368.441 82.0877 366.908 81.7226C365.564 81.4332 364.232 81.0978 362.895 80.7775C362.691 80.7313 362.486 80.8471 362.43 81.0397C362.373 81.2322 362.486 81.4329 362.686 81.4943C365.542 82.292 368.461 82.8682 371.414 83.2173C372.341 83.2924 373.664 83.4176 374.114 82.4504C374.556 81.1168 374.717 79.7128 374.587 78.3196C374.587 76.8178 374.464 75.328 374.457 73.8323C374.457 73.6271 374.283 73.4608 374.068 73.4608C373.853 73.4608 373.679 73.6271 373.679 73.8323" fill="#003849"/>
<path fill-rule="evenodd" clip-rule="evenodd" d="M366.551 65.2871C366.558 66.3464 366.701 67.4056 366.752 68.4639C366.928 69.6287 366.839 70.8161 366.491 71.945C366.154 72.6719 364.819 72.3104 364.203 72.1913C362.826 71.9022 361.474 71.5154 360.157 71.0339C358.967 70.6204 357.785 70.1749 356.634 69.6703C356.182 69.4701 355.787 70.1118 356.242 70.3111C358.699 71.4455 361.282 72.3129 363.943 72.8971C364.782 73.0643 366.23 73.3977 366.911 72.6889C367.674 71.9 367.572 70.3732 367.559 69.385C367.542 68.0144 367.339 66.6508 367.33 65.2801C367.33 65.075 367.155 64.9087 366.941 64.9087C366.726 64.9087 366.552 65.075 366.552 65.2801" fill="#003849"/>
<path fill-rule="evenodd" clip-rule="evenodd" d="M372.903 69.2488C373.247 69.2675 373.515 69.539 373.515 69.8676C373.515 70.1962 373.247 70.4676 372.903 70.4863C372.56 70.4676 372.291 70.1961 372.291 69.8676C372.291 69.539 372.56 69.2675 372.903 69.2488Z" fill="#003849"/>
<path fill-rule="evenodd" clip-rule="evenodd" d="M371.088 67.3876C371.431 67.4063 371.7 67.6778 371.7 68.0064C371.7 68.335 371.431 68.6064 371.088 68.6251C370.744 68.6064 370.476 68.3349 370.476 68.0064C370.476 67.6778 370.744 67.4063 371.088 67.3876Z" fill="#003849"/>
<path fill-rule="evenodd" clip-rule="evenodd" d="M370.57 69.9907C370.913 70.0094 371.182 70.2809 371.182 70.6095C371.182 70.938 370.913 71.2095 370.57 71.2282C370.226 71.2095 369.958 70.938 369.958 70.6095C369.958 70.2809 370.226 70.0094 370.57 69.9907Z" fill="#003849"/>
<path fill-rule="evenodd" clip-rule="evenodd" d="M362.531 76.9239C362.875 76.9426 363.143 77.214 363.143 77.5426C363.143 77.8712 362.875 78.1427 362.531 78.1614C362.188 78.1427 361.919 77.8712 361.919 77.5426C361.919 77.2141 362.188 76.9426 362.531 76.9239Z" fill="#003849"/>
<path fill-rule="evenodd" clip-rule="evenodd" d="M360.716 74.5671C361.06 74.5858 361.328 74.8572 361.328 75.1858C361.328 75.5144 361.06 75.7859 360.716 75.8046C360.373 75.7859 360.104 75.5144 360.104 75.1858C360.104 74.8573 360.373 74.5858 360.716 74.5671Z" fill="#003849"/>
<path fill-rule="evenodd" clip-rule="evenodd" d="M359.808 77.1712C360.152 77.1899 360.42 77.4613 360.42 77.7899C360.42 78.1185 360.152 78.39 359.808 78.4087C359.464 78.39 359.196 78.1185 359.196 77.7899C359.196 77.4614 359.464 77.1899 359.808 77.1712Z" fill="#003849"/>
<path fill-rule="evenodd" clip-rule="evenodd" d="M376.793 95.3647C377.137 95.3834 377.406 95.6549 377.406 95.9834C377.406 96.312 377.137 96.5835 376.793 96.6022C376.45 96.5835 376.181 96.312 376.181 95.9834C376.181 95.6549 376.45 95.3834 376.793 95.3647Z" fill="#003849"/>
<path fill-rule="evenodd" clip-rule="evenodd" d="M374.07 94.6218C374.414 94.6405 374.682 94.912 374.682 95.2406C374.682 95.5691 374.414 95.8406 374.07 95.8593C373.727 95.8406 373.458 95.5691 373.458 95.2406C373.458 94.912 373.727 94.6405 374.07 94.6218Z" fill="#003849"/>
<path fill-rule="evenodd" clip-rule="evenodd" d="M385.739 87.0749C386.082 87.0936 386.351 87.3651 386.351 87.6936C386.351 88.0222 386.082 88.2936 385.739 88.3123C385.395 88.2936 385.126 88.0222 385.126 87.6936C385.126 87.3651 385.395 87.0936 385.739 87.0749Z" fill="#003849"/>
<path fill-rule="evenodd" clip-rule="evenodd" d="M385.221 84.2235C385.565 84.2422 385.833 84.5137 385.833 84.8423C385.833 85.1708 385.565 85.4423 385.221 85.461C384.877 85.4423 384.609 85.1708 384.609 84.8423C384.609 84.5137 384.877 84.2422 385.221 84.2235Z" fill="#003849"/>
<path fill-rule="evenodd" clip-rule="evenodd" d="M354.363 62.5639C354.706 62.5826 354.975 62.8541 354.975 63.1827C354.975 63.5113 354.706 63.7827 354.363 63.8014C354.019 63.7827 353.75 63.5112 353.75 63.1827C353.75 62.8541 354.019 62.5826 354.363 62.5639Z" fill="#003849"/>
<path fill-rule="evenodd" clip-rule="evenodd" d="M392.455 133.29C392.862 125.795 393.727 109.41 391.772 101.938C388.102 89.5769 382.971 97.1178 381.182 105.423C376.449 91.414 370.813 77.4806 363.66 96.6432C361.143 94.9412 352.323 81.9709 348.019 88.5757C346.452 91.3089 354.32 99.851 356.015 102.486C350.603 102.936 339.225 103.711 346.802 111.061C350.591 114.737 358.861 115.783 363.611 117.99C357.88 120.894 349.175 125.093 359.568 129.433C366.407 132.68 384.944 132.699 392.452 133.289" fill="#003849"/>
<path fill-rule="evenodd" clip-rule="evenodd" d="M392.421 133.307C381.708 122.485 371.218 111.453 361.198 100.038C358.427 96.8818 355.697 93.6937 353.007 90.4739C352.483 89.8512 351.574 90.7322 352.089 91.3489C361.804 102.986 372.09 114.181 382.647 125.124C385.579 128.161 388.531 131.18 391.504 134.181C392.078 134.76 392.994 133.88 392.421 133.306" fill="#5596A5"/>
<path fill-rule="evenodd" clip-rule="evenodd" d="M369.791 95.616C369.803 100.733 370.565 105.853 370.051 110.966L370.698 110.347C365.155 110.848 359.641 109.622 354.102 109.605C353.759 109.623 353.49 109.895 353.49 110.223C353.49 110.552 353.759 110.823 354.102 110.842C359.641 110.859 365.155 112.088 370.698 111.585C371.051 111.573 371.335 111.303 371.347 110.966C371.861 105.853 371.099 100.732 371.088 95.616C371.068 95.2879 370.784 95.0313 370.44 95.0313C370.095 95.0313 369.811 95.2879 369.791 95.616Z" fill="#5596A5"/>
<path fill-rule="evenodd" clip-rule="evenodd" d="M384.313 109.976C384.313 115.182 384.666 120.527 383.558 125.657L384.187 125.202C378.548 124.968 372.854 125.475 367.246 124.729C366.429 124.62 366.076 125.814 366.901 125.923C372.633 126.686 378.427 126.201 384.187 126.44C384.479 126.441 384.737 126.255 384.816 125.986C385.949 120.74 385.62 115.296 385.617 109.976C385.597 109.648 385.313 109.391 384.969 109.391C384.625 109.391 384.34 109.648 384.321 109.976" fill="#5596A5"/>
<path fill-rule="evenodd" clip-rule="evenodd" d="M375.108 104.096C375.633 104.113 376.049 104.523 376.049 105.025C376.049 105.526 375.633 105.937 375.108 105.953C374.584 105.937 374.167 105.526 374.167 105.025C374.167 104.523 374.584 104.113 375.108 104.096" fill="#5596A5"/>
<path fill-rule="evenodd" clip-rule="evenodd" d="M375.108 99.3914C375.633 99.4079 376.049 99.8188 376.049 100.32C376.049 100.821 375.633 101.232 375.108 101.249C374.584 101.232 374.167 100.821 374.167 100.32C374.167 99.8188 374.584 99.4079 375.108 99.3915" fill="#5596A5"/>
<path fill-rule="evenodd" clip-rule="evenodd" d="M366.292 100.134C366.816 100.151 367.233 100.562 367.233 101.063C367.233 101.564 366.816 101.975 366.292 101.992C365.767 101.975 365.351 101.564 365.351 101.063C365.351 100.562 365.767 100.151 366.292 100.134" fill="#5596A5"/>
<path fill-rule="evenodd" clip-rule="evenodd" d="M353.326 105.333C353.851 105.35 354.267 105.761 354.267 106.262C354.267 106.763 353.851 107.174 353.326 107.191C352.801 107.174 352.385 106.763 352.385 106.262C352.385 105.761 352.801 105.35 353.326 105.333" fill="#5596A5"/>
<path fill-rule="evenodd" clip-rule="evenodd" d="M349.437 106.819C349.961 106.836 350.378 107.247 350.378 107.748C350.378 108.249 349.961 108.66 349.437 108.676C348.912 108.66 348.496 108.249 348.496 107.748C348.496 107.247 348.912 106.836 349.437 106.819" fill="#5596A5"/>
<path fill-rule="evenodd" clip-rule="evenodd" d="M370.441 118.456C370.966 118.472 371.382 118.883 371.382 119.385C371.382 119.886 370.966 120.297 370.441 120.313C369.916 120.297 369.5 119.886 369.5 119.385C369.5 118.883 369.916 118.472 370.441 118.456" fill="#5596A5"/>
<path fill-rule="evenodd" clip-rule="evenodd" d="M359.809 123.408C360.334 123.424 360.75 123.835 360.75 124.336C360.75 124.838 360.334 125.249 359.809 125.265C359.285 125.249 358.868 124.838 358.868 124.336C358.868 123.835 359.285 123.424 359.809 123.408" fill="#5596A5"/>
<path fill-rule="evenodd" clip-rule="evenodd" d="M385.74 101.867C386.265 101.884 386.681 102.295 386.681 102.796C386.681 103.297 386.265 103.708 385.74 103.725C385.215 103.708 384.799 103.297 384.799 102.796C384.799 102.295 385.215 101.884 385.74 101.867" fill="#5596A5"/>
<path fill-rule="evenodd" clip-rule="evenodd" d="M388.851 119.693C389.376 119.71 389.792 120.121 389.792 120.622C389.792 121.123 389.376 121.534 388.851 121.551C388.327 121.534 387.91 121.123 387.91 120.622C387.91 120.121 388.327 119.71 388.851 119.693" fill="#5596A5"/>
<path fill-rule="evenodd" clip-rule="evenodd" d="M168.511 134.24C168.122 128.793 167.215 123.841 169.03 118.521C169.549 117.159 170.845 112.455 173.049 113.446C174.606 114.065 174.346 118.026 174.865 119.264C177.199 116.788 177.199 112.456 180.051 110.227C183.94 107.008 182.644 112.83 182.777 114.933C185.37 113.818 189.39 106.268 192.89 107.382C196.131 108.496 188.093 115.676 187.186 117.161C188.742 117.409 190.427 116.419 192.114 116.543C194.577 116.667 195.485 118.152 193.151 119.637C190.688 120.999 184.335 120.875 183.294 123.842C184.85 124.585 191.722 122.975 191.333 126.194C190.944 128.546 184.72 128.917 182.905 129.413C177.849 130.65 173.573 132.632 168.902 134.612" fill="#4094A8"/>
<path fill-rule="evenodd" clip-rule="evenodd" d="M169.05 134.272C173.814 127.339 180.361 121.834 186.152 115.727C187.744 114.047 189.274 112.314 190.702 110.504C190.953 110.185 190.388 109.876 190.143 110.191C184.942 116.785 178.321 122.174 172.78 128.487C171.239 130.23 169.807 132.057 168.49 133.959C168.26 134.294 168.822 134.604 169.05 134.272" fill="#003849"/>
<path fill-rule="evenodd" clip-rule="evenodd" d="M179.219 114.102C178.49 116.921 178.18 119.824 178.301 122.726C178.303 122.822 178.35 122.913 178.43 122.971C178.51 123.03 178.614 123.05 178.712 123.026C182.71 122.217 186.407 120.463 190.246 119.189C190.637 119.059 190.469 118.461 190.073 118.588C186.23 119.863 182.532 121.617 178.539 122.426L178.949 122.726C178.829 119.88 179.13 117.032 179.845 114.267C179.926 113.879 179.301 113.711 179.216 114.103" fill="#003849"/>
<path fill-rule="evenodd" clip-rule="evenodd" d="M171.818 119.261C172.18 122.551 172.354 125.857 172.337 129.165C172.337 129.261 172.384 129.352 172.465 129.411C172.545 129.47 172.65 129.49 172.748 129.465C176.671 128.36 180.653 127.451 184.675 126.742C185.084 126.668 184.911 126.071 184.502 126.141C180.48 126.851 176.498 127.76 172.575 128.864L172.985 129.165C173.001 125.856 172.828 122.55 172.466 119.26C172.434 118.866 171.786 118.86 171.818 119.261Z" fill="#003849"/>
<path fill-rule="evenodd" clip-rule="evenodd" d="M147.57 98.19C162.972 104.657 172.371 122.758 169.346 135.699C150.696 130.728 147.883 113.566 147.57 98.19Z" fill="#003849"/>
<path fill-rule="evenodd" clip-rule="evenodd" d="M151.247 103.448C155.966 111.607 159.783 120.193 164.25 128.471C165.508 130.809 166.83 133.12 168.228 135.387C168.319 135.535 168.517 135.584 168.672 135.498C168.826 135.412 168.878 135.222 168.788 135.075C163.843 127.057 159.974 118.504 155.648 110.18C154.415 107.807 153.143 105.455 151.803 103.136C151.602 102.787 151.041 103.099 151.243 103.448" fill="#4094A8"/>
<path fill-rule="evenodd" clip-rule="evenodd" d="M151.311 110.893C153.072 111.545 154.779 112.321 156.42 113.214C156.507 113.261 156.612 113.268 156.705 113.231C156.798 113.195 156.869 113.121 156.897 113.029C157.316 111.088 157.034 109.086 157.297 107.129C157.35 106.735 156.701 106.738 156.648 107.129C156.394 109.031 156.681 110.982 156.271 112.864L156.747 112.679C155.057 111.762 153.298 110.965 151.484 110.296C151.091 110.16 150.921 110.759 151.311 110.897" fill="#4094A8"/>
<path fill-rule="evenodd" clip-rule="evenodd" d="M152.737 117.207C155.205 118.075 157.666 118.951 160.05 120.023C160.137 120.07 160.243 120.077 160.336 120.041C160.429 120.004 160.499 119.93 160.527 119.838C160.923 117.598 161.187 115.339 161.316 113.071C161.341 112.67 160.693 112.67 160.668 113.071C160.543 115.284 160.287 117.488 159.901 119.674L160.377 119.488C157.947 118.394 155.43 117.497 152.91 116.61C152.518 116.473 152.349 117.069 152.737 117.211" fill="#4094A8"/>
<path fill-rule="evenodd" clip-rule="evenodd" d="M156.367 124.757C158.841 125.749 161.371 126.597 163.887 127.481C164.059 127.522 164.235 127.427 164.286 127.264C165.04 125.325 165.523 123.3 165.723 121.24C165.779 120.847 165.13 120.851 165.075 121.24C164.876 123.245 164.4 125.215 163.66 127.1L164.06 126.884C161.543 126 159.013 125.151 156.54 124.161C156.157 124.007 155.989 124.605 156.367 124.761" fill="#4094A8"/>
<path fill-rule="evenodd" clip-rule="evenodd" d="M240.021 118.532C235.042 109.645 219.573 110.497 215.84 119.848C215.294 121.226 215.081 122.705 215.218 124.174C214.929 126.197 215.28 128.257 216.227 130.088C218 133.569 222.309 135.3 226.113 135.661C235.572 136.562 245.003 127.426 240.021 118.533" fill="#FFD066"/>
<path fill-rule="evenodd" clip-rule="evenodd" d="M227.3 125.387C228.188 125.42 229.477 125.297 229.718 124.286C229.784 123.446 229.393 122.633 228.684 122.133C227.935 121.445 226.905 121.108 225.872 121.215C224.635 121.528 223.68 122.464 223.384 123.652C222.823 124.927 223.007 126.39 223.87 127.502C224.778 128.424 226.025 128.975 227.349 129.039C230.531 129.352 233.798 127.748 234.42 124.552C235.195 120.564 231.444 117.244 227.698 116.397C224.275 115.626 220.696 116.686 219.155 119.88C217.572 123.163 218.39 127.428 220.248 130.46C221.178 132.076 222.767 133.251 224.637 133.707C226.759 134.096 228.946 134.007 231.024 133.445C233.064 133.006 234.92 131.995 236.354 130.541C237.435 129.326 238.135 127.845 238.374 126.267C238.898 123.144 238.036 119.475 235.412 117.369C234.789 116.872 234.082 116.479 233.322 116.206C232.932 116.064 232.763 116.663 233.149 116.807C239.079 118.964 239.367 128.053 234.479 131.324C232.845 132.354 230.975 132.993 229.027 133.187C227.142 133.536 225.192 133.344 223.422 132.636C221.938 131.818 220.798 130.533 220.199 129C219.459 127.393 219.045 125.666 218.978 123.91C218.917 121.089 220.198 118.077 223.183 117.095C226.679 116.128 230.436 117.335 232.608 120.124C233.723 121.488 234.11 123.27 233.656 124.946C233.231 126.322 232.173 127.438 230.782 127.98C228.79 128.755 225.487 128.803 224.165 126.852C223.056 125.213 224.141 121.487 226.62 121.826C227.449 121.966 228.191 122.405 228.692 123.05C229.033 123.485 229.368 124.199 228.754 124.559C228.3 124.76 227.796 124.833 227.301 124.771C226.881 124.755 226.881 125.372 227.301 125.39" fill="#003849"/>
<path fill-rule="evenodd" clip-rule="evenodd" d="M228.278 102.399V110.28C228.278 110.451 228.512 110.59 228.802 110.59C229.092 110.59 229.326 110.451 229.326 110.28V102.399C229.326 102.228 229.092 102.09 228.802 102.09C228.512 102.09 228.278 102.228 228.278 102.399Z" fill="#003849"/>
<path fill-rule="evenodd" clip-rule="evenodd" d="M218.382 109.396L220.406 111.333C220.533 111.453 220.738 111.453 220.865 111.332C220.991 111.211 220.991 111.015 220.864 110.894L218.837 108.958C218.71 108.837 218.505 108.837 218.379 108.958C218.252 109.079 218.252 109.275 218.379 109.396" fill="#003849"/>
<path fill-rule="evenodd" clip-rule="evenodd" d="M239.379 109.372L236.917 111.723C236.804 111.846 236.81 112.032 236.931 112.147C237.052 112.263 237.246 112.27 237.375 112.162L239.837 109.811C239.951 109.688 239.945 109.502 239.824 109.386C239.703 109.27 239.508 109.264 239.379 109.372Z" fill="#003849"/>
<path fill-rule="evenodd" clip-rule="evenodd" d="M207.809 118.738C209.556 119.294 211.348 119.711 213.167 119.983C213.575 120.043 213.752 119.447 213.341 119.382C211.521 119.11 209.729 118.694 207.982 118.138C207.585 118.011 207.415 118.609 207.809 118.738Z" fill="#003849"/>
<path fill-rule="evenodd" clip-rule="evenodd" d="M244.474 120.398C246.257 120.119 248.05 119.967 249.833 119.707C250.244 119.647 250.069 119.052 249.66 119.107C247.877 119.367 246.081 119.518 244.301 119.798C243.891 119.863 244.065 120.458 244.474 120.398Z" fill="#003849"/>
<path fill-rule="evenodd" clip-rule="evenodd" d="M244.677 128.075C245.453 128.075 246.219 128.254 246.994 128.258C247.173 128.257 247.317 128.074 247.317 127.848C247.317 127.623 247.173 127.44 246.994 127.439C246.219 127.439 245.453 127.259 244.677 127.256C244.561 127.256 244.453 127.334 244.395 127.461C244.337 127.587 244.337 127.744 244.395 127.871C244.453 127.997 244.561 128.075 244.677 128.075" fill="#003849"/>
<path fill-rule="evenodd" clip-rule="evenodd" d="M210.356 128.394C211.353 128.416 212.349 128.351 213.339 128.197C213.511 128.137 213.612 127.912 213.565 127.695C213.514 127.481 213.338 127.356 213.166 127.41C212.234 127.548 211.295 127.604 210.356 127.577C210.177 127.577 210.032 127.76 210.032 127.986C210.032 128.211 210.177 128.394 210.356 128.394" fill="#003849"/>
<path fill-rule="evenodd" clip-rule="evenodd" d="M56.7049 27.4705C55.9509 24.2286 53.2193 17.3545 48.8844 17.4766C43.8019 17.6228 45.2689 26.7376 45.5153 29.615C45.6506 31.1949 48.2416 31.2079 48.1085 29.615C48.075 29.2145 47.9397 27.93 47.8589 26.4212C48.1619 26.6158 48.5465 26.6533 48.8844 26.5213C50.3084 26.0368 51.7838 25.7825 53.1742 25.2198C53.6156 26.1576 53.9607 27.1339 54.205 28.1352C54.5678 29.6931 57.0677 29.0363 56.7049 27.4765M48.1955 24.1305C48.0513 24.1804 47.9169 24.2532 47.7981 24.3458C47.7981 21.997 48.0665 19.8004 49.1256 19.9406C50.3724 20.1058 51.3738 21.7827 52.0376 23.0042C50.8118 23.5188 49.4549 23.705 48.1955 24.1295" fill="#D67676"/>
<path fill-rule="evenodd" clip-rule="evenodd" d="M127.404 88.6057C125.95 89.6199 124.329 89.6319 123.345 88.0511C122.296 86.3601 123.582 84.9204 125.292 84.4308C125.955 84.2277 126.332 83.562 126.147 82.9215C125.962 82.281 125.281 81.8935 124.603 82.043C121.399 82.959 119.398 85.8475 120.919 88.9411C121.565 90.3037 122.833 91.306 124.356 91.658C125.878 92.01 127.486 91.6726 128.714 90.7433C130.051 89.8131 128.759 87.6626 127.405 88.6057" fill="#4094A8"/>
<path fill-rule="evenodd" clip-rule="evenodd" d="M75.2816 67.693C74.8062 67.7087 74.4292 68.0812 74.4292 68.5355C74.4292 68.9897 74.8062 69.3623 75.2816 69.378C75.7572 69.3623 76.1341 68.9898 76.1341 68.5355C76.1341 68.0812 75.7572 67.7087 75.2816 67.693Z" fill="#4094A8"/>
<path fill-rule="evenodd" clip-rule="evenodd" d="M76.8662 65.166C76.3907 65.1817 76.0137 65.5542 76.0137 66.0085C76.0137 66.4628 76.3907 66.8353 76.8662 66.851C77.3416 66.8353 77.7186 66.4628 77.7186 66.0085C77.7186 65.5543 77.3416 65.1817 76.8662 65.166Z" fill="#4094A8"/>
<path fill-rule="evenodd" clip-rule="evenodd" d="M78.1015 68.0294C77.626 68.0451 77.249 68.4176 77.249 68.8719C77.249 69.3261 77.626 69.6987 78.1015 69.7144C78.577 69.6987 78.9539 69.3261 78.9539 68.8719C78.9539 68.4176 78.577 68.0451 78.1015 68.0294Z" fill="#4094A8"/>
<path fill-rule="evenodd" clip-rule="evenodd" d="M329.161 99.2313C328.686 99.2469 328.309 99.6195 328.309 100.074C328.309 100.528 328.686 100.901 329.161 100.916C329.636 100.9 330.013 100.528 330.013 100.074C330.013 99.6196 329.636 99.2471 329.161 99.2313Z" fill="#4094A8"/>
<path fill-rule="evenodd" clip-rule="evenodd" d="M330.753 96.7003C330.277 96.716 329.9 97.0885 329.9 97.5428C329.9 97.997 330.277 98.3696 330.753 98.3853C331.228 98.3696 331.605 97.997 331.605 97.5428C331.605 97.0885 331.228 96.716 330.753 96.7003" fill="#4094A8"/>
<path fill-rule="evenodd" clip-rule="evenodd" d="M331.985 99.5637C331.509 99.5793 331.132 99.9519 331.132 100.406C331.132 100.86 331.509 101.233 331.985 101.249C332.46 101.233 332.837 100.86 332.837 100.406C332.837 99.9519 332.46 99.5793 331.985 99.5637" fill="#4094A8"/>
<g opacity="0.3">
<mask id="mask2_640_766" style="mask-type:luminance" maskUnits="userSpaceOnUse" x="180" y="57" width="52" height="26">
<rect x="180.958" y="57.0374" width="50.3629" height="25.0726" fill="white"/>
</mask>
<g mask="url(#mask2_640_766)">
<path fill-rule="evenodd" clip-rule="evenodd" d="M216.191 81.6525C207.275 82.2944 198.319 82.2629 189.409 81.5584C178.851 80.7164 177.644 69.2569 188.859 72.801C183.442 60.2652 194.129 53.7065 202.013 66.2833C202.967 52.1667 221.591 55.1582 217.12 68.8814C222.81 65.9449 232.997 67.7911 231.082 76.5084C229.928 82.2102 221.12 81.7316 216.192 81.6525" fill="#90CCD6"/>
</g>
</g>
</g>
</g>
</svg>
